<?xml version="1.0" encoding="UTF-8" standalone="no"?>
<!-- Created with Inkscape (http://www.inkscape.org/) -->
<svg
   xmlns:svg="http://www.w3.org/2000/svg"
   xmlns="http://www.w3.org/2000/svg"
   version="1.0"
   width="921.25983"
   height="141.73228"
   id="svg11288">
  <defs
     id="defs11290" />
  <g
     id="layer1">
    <g
       transform="matrix(3.543307e-5,0,0,3.543307e-5,-2.328789e-4,1.119507e-4)"
       style="fill-rule:evenodd"
       id="Ebene_x0020_1">
  
  <path
   d="M 2085110,1065220 C 2022750,1065220 1970720,1058170 1911790,1051260 L 1911790,2074560 C 1911790,2098910 1908310,2105820 1894350,2116200 L 1311560,2487450 C 1398320,2529090 1502380,2556920 1610060,2556920 C 1977630,2556920 2393800,2355570 2588240,1852640 C 2598580,1824810 2622780,1817900 2622780,1866450 L 2622780,1901190 C 2622780,2452670 2202980,2948690 1582230,2948690 C 905780,2948690 499990,2438710 499990,1908090 C 499990,1509220 718240,1138020 1214410,981940 C 1235330,974840 1238810,985220 1224800,995750 C 1006350,1165650 888340,1443230 888340,1720760 C 888340,2015630 1006350,2307020 1269920,2463250 L 1415620,2352090 C 1464360,2313930 1474550,2279340 1474550,2223690 L 1474550,961020 C 1315040,902090 1172970,867350 1040940,867350 C 860660,867350 697520,947010 538010,1141450 C 520720,1162220 510180,1162220 510180,1141450 C 531100,749480 881380,527410 1228280,527410 C 1627300,527410 1994920,721850 2397420,721850 C 2539490,721850 2685340,690400 2806690,624560 C 2823980,617650 2827410,631460 2820500,645280 C 2695720,957590 2390320,1065220 2085110,1065220 L 2085110,1065220 z M 3972400,2917580 C 3958390,2931400 3958390,2927970 3948000,2921060 L 3670480,2674790 C 3642650,2650390 3628830,2629670 3628830,2584550 L 3628830,1634000 C 3628830,1623660 3628830,1613130 3614970,1602740 L 3521300,1519410 C 3510770,1512700 3496950,1509220 3483140,1516130 L 3306330,1599260 L 3306330,2494500 C 3306330,2508320 3302710,2522180 3316670,2532520 L 3396520,2601840 C 3417300,2619140 3451830,2640050 3483140,2629670 L 3510770,2619140 C 3545500,2605270 3552610,2626040 3531690,2643480 L 3212660,2917580 C 3198650,2931400 3195180,2927970 3184840,2921060 L 2903780,2671310 C 2869250,2643480 2869250,2636580 2869250,2591460 L 2869250,1051260 C 2869250,1033970 2869250,1030340 2851800,1016530 L 2817070,985220 C 2782480,954110 2768670,961020 2723550,981940 L 2654080,1013050 C 2643700,1016530 2633310,1002660 2650600,985220 L 3018220,676540 C 3032230,662720 3032230,666200 3042570,673110 L 3264640,877880 C 3292470,905560 3306330,922860 3306330,967930 L 3306330,1547230 L 3767570,1255890 C 3781580,1248930 3795400,1248930 3805790,1259320 L 4031340,1467580 C 4062440,1495260 4069350,1516130 4069350,1550710 L 4069350,2501270 C 4069350,2518710 4069350,2522180 4086790,2536000 L 4173550,2608750 C 4208140,2640050 4221960,2633100 4267070,2612370 L 4336540,2581120 C 4346880,2577640 4357460,2591460 4339970,2608750 L 3972400,2917580 z M 5450030,1769360 L 4835990,2154420 L 4835990,2449240 C 4835990,2476870 4839470,2487450 4863820,2497790 L 5061540,2601840 C 5096080,2619140 5155210,2636580 5189950,2615660 L 5373810,2508320 C 5404910,2490880 5429310,2501270 5411870,2515280 L 4908940,2921060 C 4898410,2931400 4902030,2927970 4888170,2921060 L 4440550,2685120 C 4405810,2667880 4395480,2660780 4395480,2612370 L 4395480,1516130 C 4395480,1498690 4402530,1491780 4423110,1484870 L 5155210,1248930 C 5165600,1245510 5175940,1242030 5182840,1255890 L 5456940,1741530 C 5463850,1752060 5463850,1762450 5450030,1769360 z M 4843100,1432840 L 4835990,1436130 L 4835990,2109440 L 5078840,1908090 C 5092800,1897760 5092800,1890650 5085890,1880460 L 4843100,1432840 z M 7957580,2483970 L 7458080,2914150 C 7444120,2924490 7433730,2931400 7419920,2924490 C 7121420,2775360 6864810,2692030 6604680,2692030 C 6389510,2692030 6177980,2764830 5942090,2921060 C 5921170,2934880 5907360,2931400 5921170,2907250 C 6046140,2705900 6212710,2494500 6420820,2397210 C 6424250,2383400 6427870,2338280 6427870,2275720 L 6427870,1255890 C 6427870,1242030 6434830,1235120 6448650,1228210 L 6844040,988850 C 6757280,1006140 6660180,1020150 6576850,1020150 C 6216190,1020150 6032280,839720 5966290,555240 C 5962810,541230 5969720,537800 5980110,541230 C 6164160,631460 6316760,662720 6465940,662720 C 6715640,662720 7072870,527410 7291520,527410 C 7732030,527410 7975020,711320 7975020,1311540 L 7975020,2445760 C 7975020,2463250 7967920,2473590 7957580,2483970 z M 7537790,1311540 C 7537790,992320 7437210,905560 7281130,905560 C 7166540,905560 7020850,950680 6864810,985220 L 6864810,2025960 C 6864810,2043450 6857910,2057270 6847520,2064370 L 6434830,2393590 C 6542120,2348660 6660180,2327890 6778050,2327890 C 7031230,2327890 7298570,2421410 7513590,2522180 C 7530880,2532520 7537790,2522180 7537790,2504690 L 7537790,1311540 z M 9217310,2917580 C 9203500,2931400 9200020,2927970 9189630,2921060 L 8873890,2643480 L 8499220,2921060 C 8485400,2931400 8481920,2927970 8468110,2917580 L 8228740,2702420 C 8190530,2671310 8187100,2664210 8187100,2622560 L 8187100,1609790 C 8187100,1592350 8200920,1588930 8207820,1585450 L 9012680,1252410 C 9026500,1245510 9040310,1245510 9054320,1259320 L 9269340,1474480 C 9300450,1505590 9311130,1523080 9311130,1543810 L 9311130,2522180 L 9373540,2577640 C 9449770,2643480 9460100,2640050 9494840,2622560 L 9543440,2598360 C 9574690,2581120 9598890,2594930 9571070,2619140 L 9217310,2917580 z M 8873890,1627090 C 8873890,1606170 8870270,1595830 8853170,1578540 L 8728200,1453760 C 8721290,1446660 8721290,1450280 8710760,1453760 L 8623990,1491780 L 8623990,2494500 C 8623990,2529090 8631100,2546390 8655450,2567260 L 8700570,2608750 C 8731670,2636580 8769840,2650390 8814960,2629670 L 8873890,2601840 L 8873890,1627090 L 8873890,1627090 z M 10025600,2917580 C 10011580,2931400 10008160,2927970 9997770,2921060 L 9716960,2671310 C 9682180,2643480 9682180,2636580 9682180,2591460 L 9682180,1634000 C 9682180,1616750 9682180,1613130 9664930,1599260 L 9630200,1568150 C 9595460,1536900 9581600,1543810 9536530,1564530 L 9467010,1595830 C 9456680,1599260 9446290,1585450 9463580,1568150 L 9831350,1259320 C 9845360,1245510 9845360,1248930 9855550,1255890 L 10077620,1460470 C 10105450,1488300 10119260,1505590 10119260,1550710 L 10119260,2494500 C 10119260,2508320 10115840,2522180 10129650,2532520 L 10209500,2601840 C 10230420,2619140 10264960,2640050 10296070,2629670 L 10323900,2619140 C 10358630,2605270 10365540,2626040 10344810,2643480 L 10025600,2917580 z M 9848640,1172760 C 9838450,1183090 9834780,1179660 9824440,1172760 L 9560680,940300 C 9553770,933190 9553770,926290 9564160,915900 L 9824440,686920 C 9834780,680010 9838450,680010 9848640,686920 L 10112360,919380 C 10122740,926290 10122740,933190 10112360,940300 L 9848640,1172760 z M 10806100,2917580 C 10792240,2931400 10788810,2927970 10778420,2921060 L 10497220,2671310 C 10462680,2643480 10462680,2636580 10462680,2591460 L 10462680,1051260 C 10462680,1033970 10462680,1030340 10445390,1016530 L 10410660,985220 C 10375920,954110 10362110,961020 10316990,981940 L 10247670,1013050 C 10237130,1016530 10226750,1002660 10244240,985220 L 10611810,676540 C 10625670,662720 10625670,666200 10636210,673110 L 10858080,877880 C 10885910,905560 10899770,922860 10899770,967930 L 10899770,2494500 C 10899770,2508320 10896290,2522180 10910300,2532520 L 10989960,2601840 C 11010690,2619140 11045470,2640050 11076580,2629670 L 11104550,2619140 C 11139140,2605270 11146040,2626040 11125270,2643480 L 10806100,2917580 z M 12384510,3156950 L 12002880,3465630 C 11992540,3475970 11985440,3472690 11978730,3469060 C 11777380,3333750 11618010,3271390 11444490,3271390 C 11323000,3271390 11201700,3295540 11045470,3337230 C 11031600,3340860 11028170,3330320 11035080,3319940 C 11198070,3073660 11399370,2997440 11586760,2997440 C 11864140,2997440 12124370,3167330 12228430,3236610 L 12238810,3229700 C 12266440,3167330 12277030,3108200 12277030,3052750 C 12277030,2875940 12131330,2733720 11950900,2643480 L 11579650,2917580 C 11562360,2927970 11558930,2927970 11548550,2921060 L 11298790,2695510 C 11264060,2664210 11264060,2664210 11264060,2615660 L 11264060,1640900 C 11264060,1623660 11264060,1620180 11246770,1606170 L 11198070,1564530 C 11163480,1533420 11149670,1540330 11104550,1561100 L 11035080,1592350 C 11024700,1595830 11014360,1582020 11031600,1564530 L 11399370,1255890 C 11413240,1242030 11413240,1245510 11423570,1252410 L 11659510,1467580 C 11687140,1495260 11701150,1512700 11701150,1557820 L 11701150,2504690 C 11701150,2522180 11704630,2539430 11714960,2549810 L 11798300,2626040 C 11822450,2650390 11867570,2640050 11895390,2626040 L 11950900,2601840 L 11950900,1637470 C 11950900,1620180 11950900,1620180 11933610,1606170 L 11884860,1564530 C 11850270,1533420 11839740,1536900 11791190,1550710 L 11763510,1557820 C 11753180,1561100 11742790,1547230 11760080,1529990 L 12086210,1255890 C 12100030,1242030 12100030,1245510 12110410,1252410 L 12346300,1467580 C 12374120,1495260 12387940,1512700 12387940,1557820 L 12387940,2470160 C 12533630,2577640 12596200,2685120 12596200,2792660 C 12596200,2914150 12537110,3032020 12384510,3156950 z M 14757240,1065220 C 14694830,1065220 14642800,1058170 14583860,1051260 L 14583860,2074560 C 14583860,2098910 14580240,2105820 14566420,2116200 L 13983830,2487450 C 14070400,2529090 14174450,2556920 14282130,2556920 C 14649710,2556920 15065880,2355570 15260120,1852640 C 15270700,1824810 15295050,1817900 15295050,1866450 L 15295050,1901190 C 15295050,2452670 14875260,2948690 14254310,2948690 C 13577860,2948690 13171880,2438710 13171880,1908090 C 13171880,1509220 13390520,1138020 13886540,981940 C 13907260,974840 13910890,985220 13896880,995750 C 13678280,1165650 13560410,1443230 13560410,1720760 C 13560410,2015630 13678280,2307020 13942000,2463250 L 14087690,2359000 C 14139720,2324460 14146820,2286250 14146820,2230790 L 14146820,961020 C 13987120,902090 13844900,867350 13713170,867350 C 13532740,867350 13369790,947010 13210280,1141450 C 13192790,1162220 13182260,1162220 13182260,1141450 C 13203180,749480 13553510,527410 13900500,527410 C 14299430,527410 14667000,721850 15069350,721850 C 15211770,721850 15357270,690400 15478760,624560 C 15496200,617650 15499480,631460 15492770,645280 C 15367800,957590 15062450,1065220 14757240,1065220 z M 16512450,1769360 L 15898560,2154420 L 15898560,2449240 C 15898560,2476870 15902040,2487450 15926240,2497790 L 16123910,2601840 C 16158640,2619140 16217780,2636580 16252310,2615660 L 16436220,2508320 C 16467530,2490880 16491680,2501270 16474430,2515280 L 15971310,2921060 C 15960970,2931400 15964400,2927970 15950580,2921060 L 15503160,2685120 C 15468380,2667880 15458040,2660780 15458040,2612370 L 15458040,1516130 C 15458040,1498690 15464750,1491780 15485670,1484870 L 16217780,1248930 C 16228160,1245510 16238500,1242030 16245600,1255890 L 16519500,1741530 C 16526610,1752060 16526610,1762450 16512450,1769360 z M 15905460,1432840 L 15898560,1436130 L 15898560,2109440 L 16141400,1908090 C 16155220,1897760 16155220,1890650 16148310,1880460 L 15905460,1432840 z M 16998230,2917580 C 16984270,2931400 16980990,2927970 16970600,2921060 L 16689400,2671310 C 16654860,2643480 16654860,2636580 16654860,2591460 L 16654860,1051260 C 16654860,1033970 16654860,1030340 16637370,1016530 L 16602840,985220 C 16568100,954110 16554090,961020 16509170,981940 L 16439700,1013050 C 16429310,1016530 16418780,1002660 16436220,985220 L 16803840,676540 C 16817660,662720 16817660,666200 16828190,673110 L 17050260,877880 C 17078090,905560 17091900,922860 17091900,967930 L 17091900,2494500 C 17091900,2508320 17088280,2522180 17102140,2532520 L 17182140,2601840 C 17202860,2619140 17237600,2640050 17268710,2629670 L 17296530,2619140 C 17331270,2605270 17338030,2626040 17317310,2643480 L 16998230,2917580 z M 18444810,1769360 L 17830920,2154420 L 17830920,2449240 C 17830920,2476870 17834200,2487450 17858590,2497790 L 18056270,2601840 C 18090860,2619140 18149940,2636580 18184520,2615660 L 18368430,2508320 C 18399690,2490880 18423890,2501270 18406600,2515280 L 17903520,2921060 C 17893330,2931400 17896760,2927970 17882800,2921060 L 17435320,2685120 C 17400590,2667880 17390060,2660780 17390060,2612370 L 17390060,1516130 C 17390060,1498690 17397110,1491780 17417880,1484870 L 18149940,1248930 C 18160320,1245510 18170710,1242030 18177620,1255890 L 18451720,1741530 C 18458620,1752060 18458620,1762450 18444810,1769360 z M 17837480,1432840 L 17830920,1436130 L 17830920,2109440 L 18073760,1908090 C 18087380,1897760 18087380,1890650 18080470,1880460 L 17837480,1432840 z M 19707470,3156950 L 19325840,3465630 C 19315510,3475970 19308600,3472690 19301690,3469060 C 19100340,3333750 18940830,3271390 18767460,3271390 C 18645960,3271390 18524470,3295540 18368430,3337230 C 18354570,3340860 18351140,3330320 18358050,3319940 C 18521040,3073660 18722340,2997440 18909720,2997440 C 19187250,2997440 19447190,3167330 19551390,3236610 L 19561780,3229700 C 19589410,3167330 19599990,3108200 19599990,3052750 C 19599990,2875940 19454290,2733720 19273860,2643480 L 18899140,2921060 C 18885330,2931400 18874940,2927970 18864600,2917580 L 18628670,2702420 C 18593930,2671310 18587030,2657490 18587030,2622560 L 18587030,1609790 C 18587030,1592350 18600840,1588930 18607800,1585450 L 19405700,1255890 C 19426620,1245510 19440280,1245510 19447190,1252410 L 19669460,1474480 C 19697090,1502160 19710900,1523080 19710900,1547230 L 19710900,2470160 C 19856600,2577640 19919160,2685120 19919160,2792660 C 19919160,2914150 19860080,3032020 19707470,3156950 z M 19273860,1620180 C 19273860,1606170 19270390,1595830 19256570,1582020 L 19128170,1453760 C 19121260,1446660 19117780,1450280 19107250,1453760 L 19023920,1491780 L 19023920,2487450 C 19023920,2542910 19038130,2549810 19093430,2601840 C 19124690,2629670 19141790,2640050 19173240,2640050 C 19201070,2640050 19246040,2619140 19273860,2601840 L 19273860,1620180 z M 20838260,1696410 C 20820970,1710420 20803670,1717330 20786430,1717330 C 20768940,1717330 20751500,1710420 20734400,1696410 L 20522670,1516130 L 20501940,1533420 L 20501940,2497790 C 20501940,2518710 20501940,2522180 20515760,2532520 L 20571260,2581120 C 20630200,2629670 20644020,2636580 20706580,2612370 L 20748220,2594930 C 20775900,2584550 20782800,2598360 20765510,2615660 L 20408080,2917580 C 20394460,2931400 20390840,2927970 20380450,2921060 L 20106350,2674790 C 20075240,2646960 20064710,2636580 20064710,2598360 L 20064710,1609790 L 19981570,1523080 C 19974470,1516130 19971190,1516130 19960650,1523080 L 19856600,1582020 C 19825490,1599260 19814960,1575060 19835880,1557820 L 20193110,1255890 C 20206930,1245510 20214030,1245510 20220940,1252410 L 20463730,1491780 L 20703100,1255890 C 20716960,1245510 20727300,1242030 20741110,1255890 L 20925020,1425940 C 20959760,1457040 20980480,1474480 21001400,1474480 C 21015210,1474480 21032700,1467580 21053620,1453760 L 21101970,1422310 C 21133280,1401590 21147090,1432840 21129800,1450280 L 20838260,1696410 z M 22118370,2917580 C 22104550,2931400 22100930,2927970 22090540,2921060 L 21774800,2643480 L 21400270,2921060 C 21386460,2931400 21383030,2927970 21369020,2917580 L 21129800,2702420 C 21091640,2671310 21088160,2664210 21088160,2622560 L 21088160,1609790 C 21088160,1592350 21101970,1588930 21108930,1585450 L 21913930,1252410 C 21927600,1245510 21941420,1245510 21955230,1259320 L 22170390,1474480 C 22201700,1505590 22212040,1523080 22212040,1543810 L 22212040,2522180 L 22274450,2577640 C 22350820,2643480 22361360,2640050 22395940,2622560 L 22444490,2598360 C 22475600,2581120 22500000,2594930 22472170,2619140 L 22118370,2917580 z M 21774800,1627090 C 21774800,1606170 21771520,1595830 21754220,1578540 L 21629300,1453760 C 21622390,1446660 21622390,1450280 21611810,1453760 L 21525250,1491780 L 21525250,2494500 C 21525250,2529090 21532150,2546390 21556350,2567260 L 21601470,2608750 C 21632580,2636580 21670940,2650390 21716060,2629670 L 21774800,2601840 L 21774800,1627090 L 21774800,1627090 z M 23752280,2664210 L 23436690,2907250 C 23401800,2934880 23394850,2927970 23353210,2903770 L 23023800,2702420 L 23023800,3108200 L 23117320,3188250 C 23127850,3194960 23127850,3202070 23117320,3212450 L 22843370,3465630 C 22836460,3469060 22829550,3475970 22815540,3465630 L 22510340,3219360 C 22500000,3212450 22503620,3205500 22510340,3194960 L 22586760,3108200 L 22586760,1616750 L 22510340,1523080 C 22506910,1519410 22503620,1519410 22496520,1523080 L 22392320,1575060 C 22368260,1588930 22350820,1571630 22371550,1554340 L 22725350,1255890 C 22735740,1245510 22749700,1245510 22756610,1252410 L 23013270,1505590 L 23478180,1255890 C 23492190,1248930 23502530,1252410 23505810,1255890 L 23738460,1471060 C 23755710,1488300 23776630,1516130 23776630,1547230 L 23776630,2608750 C 23776630,2633100 23776630,2646960 23752280,2664210 z M 23339390,1637470 C 23339390,1616750 23332480,1599260 23318670,1585450 L 23221520,1491780 C 23214610,1484870 23207710,1484870 23197170,1488300 L 23023800,1554340 L 23023800,2653870 L 23120950,2685120 C 23200600,2709330 23235340,2705900 23270070,2674790 L 23304800,2643480 C 23336110,2615660 23339390,2584550 23339390,2529090 L 23339390,1637470 z M 25123110,2917580 C 25109100,2931400 25109100,2927970 25098770,2921060 L 24821190,2674790 C 24793560,2650390 24779740,2629670 24779740,2584550 L 24779740,1634000 C 24779740,1623660 24779740,1613130 24765730,1602740 L 24672060,1519410 C 24661680,1512700 24647860,1509220 24634050,1516130 L 24456900,1599260 L 24456900,2494500 C 24456900,2508320 24453420,2522180 24467430,2532520 L 24547090,2601840 C 24568010,2619140 24602600,2640050 24634050,2629670 L 24661680,2619140 C 24696410,2605270 24703170,2626040 24682400,2643480 L 24363380,2917580 C 24349560,2931400 24345940,2927970 24335550,2921060 L 24054550,2671310 C 24019960,2643480 24019960,2636580 24019960,2591460 L 24019960,1051260 C 24019960,1033970 24019960,1030340 24002520,1016530 L 23967790,985220 C 23933050,954110 23919240,961020 23874310,981940 L 23804800,1013050 C 23794460,1016530 23783880,1002660 23801370,985220 L 24168940,676540 C 24182950,662720 24182950,666200 24193340,673110 L 24415410,877880 C 24443230,905560 24456900,922860 24456900,967930 L 24456900,1547230 L 24918340,1255890 C 24932350,1248930 24945970,1248930 24956500,1259320 L 25182050,1467580 C 25213160,1495260 25220070,1516130 25220070,1550710 L 25220070,2501270 C 25220070,2518710 25220070,2522180 25237360,2536000 L 25324320,2608750 C 25358850,2640050 25372670,2633100 25417790,2612370 L 25487260,2581120 C 25497790,2577640 25508030,2591460 25490740,2608750 L 25123110,2917580 z "
   style="fill:black;fill-opacity:1"
   id="path11283" />

 </g>
  </g>
</svg>
