<svg xmlns="http://www.w3.org/2000/svg" viewBox="0 0 452.56 776"><defs><style>.a{fill:#002f4d;}.b{fill:none;stroke:#002f4d;stroke-miterlimit:10;}.c{fill:#fff;}</style></defs><title>form</title><path class="a" d="M-4493.6-356.71h2.27l5.25,6.9v-6.9h2.43v11.2h-2.1l-5.42-7.12v7.12h-2.43v-11.2Z" transform="translate(4494.56 360)"/><path class="a" d="M-4478.78-345.35a3.79,3.79,0,0,1-1.14-.17,2.68,2.68,0,0,1-.94-0.5,2.4,2.4,0,0,1-.63-0.82,2.6,2.6,0,0,1-.23-1.13v0a2.69,2.69,0,0,1,.26-1.22,2.33,2.33,0,0,1,.71-0.85,3.21,3.21,0,0,1,1.09-.5,5.43,5.43,0,0,1,1.4-.17,6,6,0,0,1,1.14.1,7.18,7.18,0,0,1,1,.26v-0.14a1.46,1.46,0,0,0-.46-1.17,2.06,2.06,0,0,0-1.38-.4,5.71,5.71,0,0,0-1.24.12,8.35,8.35,0,0,0-1.13.34l-0.61-1.86a9.54,9.54,0,0,1,1.47-.5,7.75,7.75,0,0,1,1.86-.19,5.27,5.27,0,0,1,1.72.25,3.07,3.07,0,0,1,1.18.71,2.88,2.88,0,0,1,.7,1.18,5.08,5.08,0,0,1,.22,1.56v5h-2.35v-0.93a3.37,3.37,0,0,1-1.07.79A3.53,3.53,0,0,1-4478.78-345.35ZM-4478-347a2.15,2.15,0,0,0,1.38-.42,1.33,1.33,0,0,0,.52-1.09V-349a3.7,3.7,0,0,0-.71-0.23,3.84,3.84,0,0,0-.84-0.09,2.17,2.17,0,0,0-1.23.3,1,1,0,0,0-.45.88v0a0.9,0.9,0,0,0,.37.77A1.58,1.58,0,0,0-4478-347Z" transform="translate(4494.56 360)"/><path class="a" d="M-4471.74-354.08h2.43v1.23a5.13,5.13,0,0,1,.46-0.52,3.15,3.15,0,0,1,.55-0.44,2.7,2.7,0,0,1,.68-0.31,2.92,2.92,0,0,1,.84-0.11,2.89,2.89,0,0,1,1.46.35,2.39,2.39,0,0,1,1,1,3.9,3.9,0,0,1,1.25-1,3.43,3.43,0,0,1,1.57-.35,2.81,2.81,0,0,1,2.13.8,3.27,3.27,0,0,1,.77,2.35v5.58h-2.43v-4.77a2,2,0,0,0-.37-1.3,1.3,1.3,0,0,0-1.06-.44,1.37,1.37,0,0,0-1.08.44,1.9,1.9,0,0,0-.39,1.3v4.77h-2.43v-4.77a2,2,0,0,0-.37-1.3,1.3,1.3,0,0,0-1.06-.44,1.37,1.37,0,0,0-1.08.44,1.89,1.89,0,0,0-.39,1.3v4.77h-2.43v-8.58Z" transform="translate(4494.56 360)"/><path class="a" d="M-4452.48-345.32a4.89,4.89,0,0,1-1.78-.32,4.12,4.12,0,0,1-1.42-.91,4.21,4.21,0,0,1-.94-1.4,4.64,4.64,0,0,1-.34-1.8v0a4.8,4.8,0,0,1,.31-1.73,4.4,4.4,0,0,1,.87-1.42,4.1,4.1,0,0,1,1.34-1,4.12,4.12,0,0,1,1.72-.35,4.18,4.18,0,0,1,1.86.38,3.77,3.77,0,0,1,1.3,1,4.29,4.29,0,0,1,.77,1.49,6.16,6.16,0,0,1,.25,1.75q0,0.14,0,.3c0,0.11,0,.22,0,0.34h-6a2,2,0,0,0,.73,1.26,2.18,2.18,0,0,0,1.37.42,2.71,2.71,0,0,0,1.09-.21,3.69,3.69,0,0,0,1-.67l1.39,1.23a4.32,4.32,0,0,1-1.47,1.18A4.57,4.57,0,0,1-4452.48-345.32Zm1.57-5.15a2.37,2.37,0,0,0-.58-1.32,1.59,1.59,0,0,0-1.23-.5,1.63,1.63,0,0,0-1.24.5,2.49,2.49,0,0,0-.62,1.33h3.66Z" transform="translate(4494.56 360)"/><path class="a" d="M-4442-354.08h2.58v2.56H-4442v-2.56Zm0,6h2.58v2.56H-4442v-2.56Z" transform="translate(4494.56 360)"/><rect class="b" x="140.06" y="0.5" width="312" height="19"/><path class="a" d="M-4491-315.44h-3.41v-2.27h9.28v2.27h-3.41v8.93H-4491v-8.93Z" transform="translate(4494.56 360)"/><path class="a" d="M-4479.42-306.32a4.88,4.88,0,0,1-1.78-.32,4.12,4.12,0,0,1-1.42-.91,4.21,4.21,0,0,1-.94-1.4,4.64,4.64,0,0,1-.34-1.8v0a4.8,4.8,0,0,1,.31-1.73,4.4,4.4,0,0,1,.87-1.42,4.1,4.1,0,0,1,1.34-1,4.12,4.12,0,0,1,1.72-.35,4.18,4.18,0,0,1,1.86.38,3.77,3.77,0,0,1,1.3,1,4.29,4.29,0,0,1,.77,1.49,6.16,6.16,0,0,1,.25,1.75q0,0.14,0,.3c0,0.11,0,.22,0,0.34h-6a2,2,0,0,0,.73,1.26,2.18,2.18,0,0,0,1.37.42,2.71,2.71,0,0,0,1.09-.21,3.69,3.69,0,0,0,1-.67l1.39,1.23a4.32,4.32,0,0,1-1.47,1.18A4.57,4.57,0,0,1-4479.42-306.32Zm1.57-5.15a2.37,2.37,0,0,0-.58-1.32,1.59,1.59,0,0,0-1.23-.5,1.63,1.63,0,0,0-1.24.5,2.49,2.49,0,0,0-.62,1.33h3.66Z" transform="translate(4494.56 360)"/><path class="a" d="M-4473.57-318.19h2.43v11.68h-2.43v-11.68Z" transform="translate(4494.56 360)"/><path class="a" d="M-4464.78-306.32a4.89,4.89,0,0,1-1.78-.32,4.12,4.12,0,0,1-1.42-.91,4.21,4.21,0,0,1-.94-1.4,4.64,4.64,0,0,1-.34-1.8v0a4.8,4.8,0,0,1,.31-1.73,4.4,4.4,0,0,1,.87-1.42,4.1,4.1,0,0,1,1.34-1,4.12,4.12,0,0,1,1.72-.35,4.18,4.18,0,0,1,1.86.38,3.77,3.77,0,0,1,1.3,1,4.29,4.29,0,0,1,.77,1.49,6.16,6.16,0,0,1,.25,1.75q0,0.14,0,.3c0,0.11,0,.22,0,0.34h-6a2,2,0,0,0,.73,1.26,2.18,2.18,0,0,0,1.37.42,2.71,2.71,0,0,0,1.09-.21,3.69,3.69,0,0,0,1-.67l1.39,1.23a4.32,4.32,0,0,1-1.47,1.18A4.57,4.57,0,0,1-4464.78-306.32Zm1.57-5.15a2.37,2.37,0,0,0-.58-1.32,1.59,1.59,0,0,0-1.23-.5,1.63,1.63,0,0,0-1.24.5,2.49,2.49,0,0,0-.62,1.33h3.66Z" transform="translate(4494.56 360)"/><path class="a" d="M-4459-315.08h2.43v1.23a3.86,3.86,0,0,1,1.08-1,3,3,0,0,1,1.59-.39,3.8,3.8,0,0,1,1.46.29,3.61,3.61,0,0,1,1.25.86,4.27,4.27,0,0,1,.87,1.39,5.1,5.1,0,0,1,.33,1.9v0a5.1,5.1,0,0,1-.33,1.9,4.35,4.35,0,0,1-.86,1.39,3.52,3.52,0,0,1-1.24.86,3.85,3.85,0,0,1-1.47.29,3.06,3.06,0,0,1-1.61-.38,4.29,4.29,0,0,1-1.06-.9v3.68H-4459v-11.14Zm4.48,6.67a2,2,0,0,0,.81-0.17,2,2,0,0,0,.66-0.48,2.33,2.33,0,0,0,.46-0.74,2.68,2.68,0,0,0,.17-1v0a2.7,2.7,0,0,0-.17-1,2.31,2.31,0,0,0-.46-0.75,2,2,0,0,0-.66-0.48,2,2,0,0,0-.81-0.17,2,2,0,0,0-.81.17,1.93,1.93,0,0,0-.66.48,2.39,2.39,0,0,0-.45.75,2.69,2.69,0,0,0-.17,1v0a2.69,2.69,0,0,0,.17,1,2.38,2.38,0,0,0,.45.75,1.94,1.94,0,0,0,.66.48A2,2,0,0,0-4454.56-308.41Z" transform="translate(4494.56 360)"/><path class="a" d="M-4448.24-318.19h2.43v4.33a5.13,5.13,0,0,1,.46-0.52,3.15,3.15,0,0,1,.55-0.44,2.74,2.74,0,0,1,.67-0.31,2.84,2.84,0,0,1,.83-0.11,2.74,2.74,0,0,1,2.15.85,3.38,3.38,0,0,1,.76,2.34v5.55h-2.43v-4.77a1.92,1.92,0,0,0-.38-1.3,1.37,1.37,0,0,0-1.09-.44,1.44,1.44,0,0,0-1.11.44,1.85,1.85,0,0,0-.41,1.3v4.77h-2.43v-11.68Z" transform="translate(4494.56 360)"/><path class="a" d="M-4434.06-306.32a4.85,4.85,0,0,1-1.84-.34,4.49,4.49,0,0,1-1.46-.94,4.39,4.39,0,0,1-1-1.41,4.3,4.3,0,0,1-.35-1.74v0a4.3,4.3,0,0,1,.35-1.74,4.43,4.43,0,0,1,1-1.42,4.64,4.64,0,0,1,1.47-1,4.8,4.8,0,0,1,1.86-.35,4.85,4.85,0,0,1,1.84.34,4.49,4.49,0,0,1,1.46.94,4.39,4.39,0,0,1,1,1.41,4.3,4.3,0,0,1,.35,1.74v0a4.31,4.31,0,0,1-.35,1.74,4.43,4.43,0,0,1-1,1.42,4.62,4.62,0,0,1-1.47,1A4.8,4.8,0,0,1-4434.06-306.32Zm0-2.1a2.26,2.26,0,0,0,.94-0.18,2.06,2.06,0,0,0,.7-0.5,2.21,2.21,0,0,0,.44-0.74,2.66,2.66,0,0,0,.15-0.9v0a2.55,2.55,0,0,0-.16-0.9,2.29,2.29,0,0,0-.46-0.75,2.27,2.27,0,0,0-.72-0.52,2.15,2.15,0,0,0-.91-0.19,2.26,2.26,0,0,0-.94.18,2.06,2.06,0,0,0-.7.5,2.21,2.21,0,0,0-.44.74,2.65,2.65,0,0,0-.15.9v0a2.54,2.54,0,0,0,.16.9,2.28,2.28,0,0,0,.46.75,2.29,2.29,0,0,0,.71.52A2.14,2.14,0,0,0-4434-308.41Z" transform="translate(4494.56 360)"/><path class="a" d="M-4427.65-315.08h2.43v1.23a5.13,5.13,0,0,1,.46-0.52,3.15,3.15,0,0,1,.55-0.44,2.74,2.74,0,0,1,.67-0.31,2.84,2.84,0,0,1,.83-0.11,2.74,2.74,0,0,1,2.15.85,3.38,3.38,0,0,1,.76,2.34v5.55h-2.43v-4.77a1.92,1.92,0,0,0-.38-1.3,1.37,1.37,0,0,0-1.09-.44,1.44,1.44,0,0,0-1.11.44,1.85,1.85,0,0,0-.41,1.3v4.77h-2.43v-8.58Z" transform="translate(4494.56 360)"/><path class="a" d="M-4413.62-306.32a4.89,4.89,0,0,1-1.78-.32,4.12,4.12,0,0,1-1.42-.91,4.21,4.21,0,0,1-.94-1.4,4.64,4.64,0,0,1-.34-1.8v0a4.8,4.8,0,0,1,.31-1.73,4.4,4.4,0,0,1,.87-1.42,4.1,4.1,0,0,1,1.34-1,4.12,4.12,0,0,1,1.72-.35,4.18,4.18,0,0,1,1.86.38,3.77,3.77,0,0,1,1.3,1,4.29,4.29,0,0,1,.77,1.49,6.16,6.16,0,0,1,.25,1.75q0,0.14,0,.3c0,0.11,0,.22,0,0.34h-6a2,2,0,0,0,.73,1.26,2.18,2.18,0,0,0,1.37.42,2.71,2.71,0,0,0,1.09-.21,3.69,3.69,0,0,0,1-.67l1.39,1.23a4.32,4.32,0,0,1-1.47,1.18A4.57,4.57,0,0,1-4413.62-306.32Zm1.57-5.15a2.37,2.37,0,0,0-.58-1.32,1.59,1.59,0,0,0-1.23-.5,1.63,1.63,0,0,0-1.24.5,2.49,2.49,0,0,0-.62,1.33h3.66Z" transform="translate(4494.56 360)"/><path class="a" d="M-4403.09-315.08h2.58v2.56h-2.58v-2.56Zm0,6h2.58v2.56h-2.58v-2.56Z" transform="translate(4494.56 360)"/><rect class="b" x="140.06" y="39.5" width="312" height="19"/><path class="a" d="M-4493.6-89.71h8.43v2.19h-6v2.27h5.28v2.19h-5.28v2.35h6.08v2.19h-8.51v-11.2Z" transform="translate(4494.56 360)"/><path class="a" d="M-4483.42-84.64h4.93v2.34h-4.93v-2.34Z" transform="translate(4494.56 360)"/><path class="a" d="M-4476.61-87.08h2.43v1.23a5.13,5.13,0,0,1,.46-0.52,3.15,3.15,0,0,1,.55-0.44,2.7,2.7,0,0,1,.68-0.31,2.92,2.92,0,0,1,.84-0.11,2.89,2.89,0,0,1,1.46.35,2.39,2.39,0,0,1,1,1,3.9,3.9,0,0,1,1.25-1,3.43,3.43,0,0,1,1.57-.35,2.81,2.81,0,0,1,2.13.8,3.27,3.27,0,0,1,.77,2.35v5.58H-4466v-4.77a2,2,0,0,0-.37-1.3,1.3,1.3,0,0,0-1.06-.44,1.37,1.37,0,0,0-1.08.44,1.9,1.9,0,0,0-.39,1.3v4.77h-2.43v-4.77a2,2,0,0,0-.37-1.3,1.3,1.3,0,0,0-1.06-.44,1.37,1.37,0,0,0-1.08.44,1.89,1.89,0,0,0-.39,1.3v4.77h-2.43v-8.58Z" transform="translate(4494.56 360)"/><path class="a" d="M-4459-78.35a3.79,3.79,0,0,1-1.14-.17,2.68,2.68,0,0,1-.94-0.5,2.4,2.4,0,0,1-.63-0.82,2.6,2.6,0,0,1-.23-1.13v0a2.69,2.69,0,0,1,.26-1.22,2.33,2.33,0,0,1,.71-0.85,3.21,3.21,0,0,1,1.09-.5,5.43,5.43,0,0,1,1.4-.17,6,6,0,0,1,1.14.1,7.18,7.18,0,0,1,1,.26v-0.14a1.46,1.46,0,0,0-.46-1.17,2.06,2.06,0,0,0-1.38-.4,5.71,5.71,0,0,0-1.24.12,8.35,8.35,0,0,0-1.13.34l-0.61-1.86a9.54,9.54,0,0,1,1.47-.5,7.75,7.75,0,0,1,1.86-.19,5.27,5.27,0,0,1,1.72.25,3.07,3.07,0,0,1,1.18.71,2.88,2.88,0,0,1,.7,1.18,5.08,5.08,0,0,1,.22,1.56v5h-2.35v-0.93a3.37,3.37,0,0,1-1.07.79A3.53,3.53,0,0,1-4459-78.35Zm0.74-1.68a2.15,2.15,0,0,0,1.38-.42,1.33,1.33,0,0,0,.52-1.09V-82a3.7,3.7,0,0,0-.71-0.23,3.84,3.84,0,0,0-.84-0.09,2.17,2.17,0,0,0-1.23.3,1,1,0,0,0-.45.88v0a0.9,0.9,0,0,0,.37.77A1.58,1.58,0,0,0-4458.24-80Z" transform="translate(4494.56 360)"/><path class="a" d="M-4451.89-90.19h2.56V-88h-2.56v-2.16Zm0.06,3.1h2.43v8.58h-2.43v-8.58Z" transform="translate(4494.56 360)"/><path class="a" d="M-4447-90.19h2.43v11.68H-4447V-90.19Z" transform="translate(4494.56 360)"/><path class="a" d="M-4437.49-87.08h2.58v2.56h-2.58v-2.56Zm0,6h2.58v2.56h-2.58v-2.56Z" transform="translate(4494.56 360)"/><rect class="b" x="140.06" y="267.5" width="312" height="19"/><path class="a" d="M-4493.6-52.71h8.53v2.22h-6.06v2.42h5.34v2.22h-5.34v4.34h-2.46v-11.2Z" transform="translate(4494.56 360)"/><path class="a" d="M-4483.36-50.08h2.43v1.73a3.57,3.57,0,0,1,1-1.41,2.45,2.45,0,0,1,1.73-.48v2.54h-0.13a2.5,2.5,0,0,0-1.91.74,3.24,3.24,0,0,0-.7,2.29v3.17h-2.43v-8.58Z" transform="translate(4494.56 360)"/><path class="a" d="M-4472.46-41.32a4.85,4.85,0,0,1-1.84-.34,4.49,4.49,0,0,1-1.46-.94,4.39,4.39,0,0,1-1-1.41,4.3,4.3,0,0,1-.35-1.74v0a4.3,4.3,0,0,1,.35-1.74,4.43,4.43,0,0,1,1-1.42,4.64,4.64,0,0,1,1.47-1,4.8,4.8,0,0,1,1.86-.35,4.85,4.85,0,0,1,1.84.34,4.49,4.49,0,0,1,1.46.94,4.39,4.39,0,0,1,1,1.41,4.3,4.3,0,0,1,.35,1.74v0a4.31,4.31,0,0,1-.35,1.74,4.43,4.43,0,0,1-1,1.42,4.62,4.62,0,0,1-1.47,1A4.8,4.8,0,0,1-4472.46-41.32Zm0-2.1a2.26,2.26,0,0,0,.94-0.18,2.06,2.06,0,0,0,.7-0.5,2.21,2.21,0,0,0,.44-0.74,2.66,2.66,0,0,0,.15-0.9v0a2.55,2.55,0,0,0-.16-0.9,2.29,2.29,0,0,0-.46-0.75,2.27,2.27,0,0,0-.72-0.52,2.15,2.15,0,0,0-.91-0.19,2.26,2.26,0,0,0-.94.18,2.06,2.06,0,0,0-.7.5,2.21,2.21,0,0,0-.44.74,2.65,2.65,0,0,0-.15.9v0a2.54,2.54,0,0,0,.16.9,2.28,2.28,0,0,0,.46.75,2.29,2.29,0,0,0,.71.52A2.14,2.14,0,0,0-4472.43-43.41Z" transform="translate(4494.56 360)"/><path class="a" d="M-4466-50.08h2.43v1.23a5.13,5.13,0,0,1,.46-0.52,3.15,3.15,0,0,1,.55-0.44,2.7,2.7,0,0,1,.68-0.31,2.92,2.92,0,0,1,.84-0.11,2.89,2.89,0,0,1,1.46.35,2.39,2.39,0,0,1,1,1,3.9,3.9,0,0,1,1.25-1,3.43,3.43,0,0,1,1.57-.35,2.81,2.81,0,0,1,2.13.8,3.27,3.27,0,0,1,.77,2.35v5.58h-2.43v-4.77a2,2,0,0,0-.37-1.3,1.3,1.3,0,0,0-1.06-.44,1.37,1.37,0,0,0-1.08.44,1.9,1.9,0,0,0-.39,1.3v4.77h-2.43v-4.77a2,2,0,0,0-.37-1.3,1.3,1.3,0,0,0-1.06-.44,1.37,1.37,0,0,0-1.08.44,1.89,1.89,0,0,0-.39,1.3v4.77H-4466v-8.58Z" transform="translate(4494.56 360)"/><path class="a" d="M-4445.79-52.71h4.37a6.62,6.62,0,0,1,2.41.42,5.69,5.69,0,0,1,1.89,1.18,5.24,5.24,0,0,1,1.22,1.77,5.56,5.56,0,0,1,.43,2.2v0a5.62,5.62,0,0,1-.43,2.21,5.22,5.22,0,0,1-1.22,1.78,5.8,5.8,0,0,1-1.89,1.18,6.51,6.51,0,0,1-2.41.43h-4.37v-11.2Zm4.37,9A3.8,3.8,0,0,0-4440-44a3,3,0,0,0,1.06-.69,3.23,3.23,0,0,0,.69-1.06,3.57,3.57,0,0,0,.25-1.36v0a3.65,3.65,0,0,0-.25-1.36,3.2,3.2,0,0,0-.69-1.07,3.05,3.05,0,0,0-1.06-.7,3.7,3.7,0,0,0-1.38-.25h-1.9v6.75h1.9Z" transform="translate(4494.56 360)"/><path class="a" d="M-4431.1-41.35a3.79,3.79,0,0,1-1.14-.17,2.68,2.68,0,0,1-.94-0.5,2.4,2.4,0,0,1-.63-0.82A2.6,2.6,0,0,1-4434-44v0a2.69,2.69,0,0,1,.26-1.22,2.33,2.33,0,0,1,.71-0.85,3.21,3.21,0,0,1,1.09-.5,5.43,5.43,0,0,1,1.4-.17,6,6,0,0,1,1.14.1,7.18,7.18,0,0,1,1,.26v-0.14a1.46,1.46,0,0,0-.46-1.17,2.06,2.06,0,0,0-1.38-.4,5.71,5.71,0,0,0-1.24.12,8.35,8.35,0,0,0-1.13.34l-0.61-1.86a9.54,9.54,0,0,1,1.47-.5,7.75,7.75,0,0,1,1.86-.19,5.27,5.27,0,0,1,1.72.25,3.07,3.07,0,0,1,1.18.71,2.88,2.88,0,0,1,.7,1.18,5.08,5.08,0,0,1,.22,1.56v5h-2.35v-0.93a3.37,3.37,0,0,1-1.07.79A3.53,3.53,0,0,1-4431.1-41.35Zm0.74-1.68a2.15,2.15,0,0,0,1.38-.42,1.33,1.33,0,0,0,.52-1.09V-45a3.7,3.7,0,0,0-.71-0.23,3.84,3.84,0,0,0-.84-0.09,2.17,2.17,0,0,0-1.23.3,1,1,0,0,0-.45.88v0a0.9,0.9,0,0,0,.37.77A1.58,1.58,0,0,0-4430.37-43Z" transform="translate(4494.56 360)"/><path class="a" d="M-4421.17-41.37a4,4,0,0,1-1-.12,1.81,1.81,0,0,1-.78-0.42,2,2,0,0,1-.51-0.79,3.55,3.55,0,0,1-.18-1.24V-48h-1v-2.08h1v-2.19h2.43v2.19h2V-48h-2v3.68a0.72,0.72,0,0,0,.78.83,2.38,2.38,0,0,0,1.2-.32v2a3.8,3.8,0,0,1-.85.36A3.85,3.85,0,0,1-4421.17-41.37Z" transform="translate(4494.56 360)"/><path class="a" d="M-4413.36-41.32a4.89,4.89,0,0,1-1.78-.32,4.12,4.12,0,0,1-1.42-.91,4.21,4.21,0,0,1-.94-1.4,4.64,4.64,0,0,1-.34-1.8v0a4.8,4.8,0,0,1,.31-1.73,4.4,4.4,0,0,1,.87-1.42,4.1,4.1,0,0,1,1.34-1,4.12,4.12,0,0,1,1.72-.35,4.18,4.18,0,0,1,1.86.38,3.77,3.77,0,0,1,1.3,1,4.29,4.29,0,0,1,.77,1.49,6.16,6.16,0,0,1,.25,1.75q0,0.14,0,.3c0,0.11,0,.22,0,0.34h-6a2,2,0,0,0,.73,1.26,2.18,2.18,0,0,0,1.37.42,2.71,2.71,0,0,0,1.09-.21,3.69,3.69,0,0,0,1-.67l1.39,1.23a4.32,4.32,0,0,1-1.47,1.18A4.57,4.57,0,0,1-4413.36-41.32Zm1.57-5.15a2.37,2.37,0,0,0-.58-1.32,1.59,1.59,0,0,0-1.23-.5,1.63,1.63,0,0,0-1.24.5,2.49,2.49,0,0,0-.62,1.33h3.66Z" transform="translate(4494.56 360)"/><path class="a" d="M-4402.83-50.08h2.58v2.56h-2.58v-2.56Zm0,6h2.58v2.56h-2.58v-2.56Z" transform="translate(4494.56 360)"/><rect class="b" x="140.06" y="304.5" width="312" height="19"/><path class="a" d="M-4491-11.44h-3.41v-2.27h9.28v2.27h-3.41v8.93H-4491v-8.93Z" transform="translate(4494.56 360)"/><path class="a" d="M-4479.28-2.32a4.85,4.85,0,0,1-1.84-.34,4.49,4.49,0,0,1-1.46-.94,4.39,4.39,0,0,1-1-1.41,4.3,4.3,0,0,1-.35-1.74v0a4.3,4.3,0,0,1,.35-1.74,4.43,4.43,0,0,1,1-1.42,4.64,4.64,0,0,1,1.47-1,4.8,4.8,0,0,1,1.86-.35,4.85,4.85,0,0,1,1.84.34,4.49,4.49,0,0,1,1.46.94,4.39,4.39,0,0,1,1,1.41,4.3,4.3,0,0,1,.35,1.74v0A4.31,4.31,0,0,1-4475-5a4.43,4.43,0,0,1-1,1.42,4.62,4.62,0,0,1-1.47,1A4.8,4.8,0,0,1-4479.28-2.32Zm0-2.1a2.26,2.26,0,0,0,.94-0.18,2.06,2.06,0,0,0,.7-0.5,2.21,2.21,0,0,0,.44-0.74,2.66,2.66,0,0,0,.15-0.9v0a2.55,2.55,0,0,0-.16-0.9,2.29,2.29,0,0,0-.46-0.75,2.27,2.27,0,0,0-.72-0.52,2.15,2.15,0,0,0-.91-0.19,2.26,2.26,0,0,0-.94.18,2.06,2.06,0,0,0-.7.5,2.21,2.21,0,0,0-.44.74,2.65,2.65,0,0,0-.15.9v0a2.54,2.54,0,0,0,.16.9,2.28,2.28,0,0,0,.46.75,2.29,2.29,0,0,0,.71.52A2.14,2.14,0,0,0-4479.25-4.41Z" transform="translate(4494.56 360)"/><path class="a" d="M-4467.81-13.71h4.37a6.62,6.62,0,0,1,2.41.42,5.69,5.69,0,0,1,1.89,1.18,5.24,5.24,0,0,1,1.22,1.77,5.56,5.56,0,0,1,.43,2.2v0a5.62,5.62,0,0,1-.43,2.21,5.22,5.22,0,0,1-1.22,1.78A5.8,5.8,0,0,1-4461-2.94a6.51,6.51,0,0,1-2.41.43h-4.37v-11.2Zm4.37,9a3.8,3.8,0,0,0,1.38-.24,3,3,0,0,0,1.06-.69,3.23,3.23,0,0,0,.69-1.06,3.57,3.57,0,0,0,.25-1.36v0a3.65,3.65,0,0,0-.25-1.36,3.2,3.2,0,0,0-.69-1.07,3.05,3.05,0,0,0-1.06-.7,3.7,3.7,0,0,0-1.38-.25h-1.9v6.75h1.9Z" transform="translate(4494.56 360)"/><path class="a" d="M-4453.12-2.35a3.79,3.79,0,0,1-1.14-.17,2.68,2.68,0,0,1-.94-0.5,2.4,2.4,0,0,1-.63-0.82,2.6,2.6,0,0,1-.23-1.13v0a2.69,2.69,0,0,1,.26-1.22,2.33,2.33,0,0,1,.71-0.85,3.21,3.21,0,0,1,1.09-.5,5.43,5.43,0,0,1,1.4-.17,6,6,0,0,1,1.14.1,7.18,7.18,0,0,1,1,.26V-7.53A1.46,1.46,0,0,0-4451-8.7a2.06,2.06,0,0,0-1.38-.4,5.71,5.71,0,0,0-1.24.12,8.35,8.35,0,0,0-1.13.34l-0.61-1.86a9.54,9.54,0,0,1,1.47-.5,7.75,7.75,0,0,1,1.86-.19,5.27,5.27,0,0,1,1.72.25,3.07,3.07,0,0,1,1.18.71,2.88,2.88,0,0,1,.7,1.18,5.08,5.08,0,0,1,.22,1.56v5h-2.35V-3.44a3.37,3.37,0,0,1-1.07.79A3.53,3.53,0,0,1-4453.12-2.35Zm0.74-1.68a2.15,2.15,0,0,0,1.38-.42,1.33,1.33,0,0,0,.52-1.09V-6a3.7,3.7,0,0,0-.71-0.23,3.84,3.84,0,0,0-.84-0.09,2.17,2.17,0,0,0-1.23.3,1,1,0,0,0-.45.88v0a0.9,0.9,0,0,0,.37.77A1.58,1.58,0,0,0-4452.38-4Z" transform="translate(4494.56 360)"/><path class="a" d="M-4443.18-2.37a4,4,0,0,1-1-.12,1.81,1.81,0,0,1-.78-0.42,2,2,0,0,1-.51-0.79,3.55,3.55,0,0,1-.18-1.24V-9h-1v-2.08h1v-2.19h2.43v2.19h2V-9h-2v3.68a0.72,0.72,0,0,0,.78.83,2.38,2.38,0,0,0,1.2-.32v2a3.8,3.8,0,0,1-.85.36A3.85,3.85,0,0,1-4443.18-2.37Z" transform="translate(4494.56 360)"/><path class="a" d="M-4435.38-2.32a4.89,4.89,0,0,1-1.78-.32,4.12,4.12,0,0,1-1.42-.91,4.21,4.21,0,0,1-.94-1.4,4.64,4.64,0,0,1-.34-1.8v0a4.8,4.8,0,0,1,.31-1.73,4.4,4.4,0,0,1,.87-1.42,4.1,4.1,0,0,1,1.34-1,4.12,4.12,0,0,1,1.72-.35,4.18,4.18,0,0,1,1.86.38,3.77,3.77,0,0,1,1.3,1,4.29,4.29,0,0,1,.77,1.49,6.16,6.16,0,0,1,.25,1.75q0,0.14,0,.3c0,0.11,0,.22,0,0.34h-6a2,2,0,0,0,.73,1.26,2.18,2.18,0,0,0,1.37.42,2.71,2.71,0,0,0,1.09-.21,3.69,3.69,0,0,0,1-.67l1.39,1.23a4.32,4.32,0,0,1-1.47,1.18A4.57,4.57,0,0,1-4435.38-2.32Zm1.57-5.15a2.37,2.37,0,0,0-.58-1.32,1.59,1.59,0,0,0-1.23-.5,1.63,1.63,0,0,0-1.24.5,2.49,2.49,0,0,0-.62,1.33h3.66Z" transform="translate(4494.56 360)"/><path class="a" d="M-4424.85-11.08h2.58v2.56h-2.58v-2.56Zm0,6h2.58v2.56h-2.58V-5.07Z" transform="translate(4494.56 360)"/><rect class="b" x="140.06" y="343.5" width="312" height="19"/><path class="a" d="M-4493.6,26.29h2.27l5.25,6.9v-6.9h2.43v11.2h-2.1l-5.42-7.12v7.12h-2.43V26.29Z" transform="translate(4494.56 360)"/><path class="a" d="M-4477,37.68a4.85,4.85,0,0,1-1.84-.34,4.49,4.49,0,0,1-1.46-.94,4.39,4.39,0,0,1-1-1.41,4.3,4.3,0,0,1-.35-1.74v0a4.3,4.3,0,0,1,.35-1.74,4.43,4.43,0,0,1,1-1.42,4.64,4.64,0,0,1,1.47-1,4.8,4.8,0,0,1,1.86-.35,4.85,4.85,0,0,1,1.84.34,4.49,4.49,0,0,1,1.46.94,4.39,4.39,0,0,1,1,1.41,4.3,4.3,0,0,1,.35,1.74v0a4.31,4.31,0,0,1-.35,1.74,4.43,4.43,0,0,1-1,1.42,4.62,4.62,0,0,1-1.47,1A4.8,4.8,0,0,1-4477,37.68Zm0-2.1a2.26,2.26,0,0,0,.94-0.18,2.06,2.06,0,0,0,.7-0.5,2.21,2.21,0,0,0,.44-0.74,2.66,2.66,0,0,0,.15-0.9v0a2.55,2.55,0,0,0-.16-0.9,2.29,2.29,0,0,0-.46-0.75,2.27,2.27,0,0,0-.72-0.52,2.15,2.15,0,0,0-.91-0.19,2.26,2.26,0,0,0-.94.18,2.06,2.06,0,0,0-.7.5,2.21,2.21,0,0,0-.44.74,2.65,2.65,0,0,0-.15.9v0a2.54,2.54,0,0,0,.16.9,2.28,2.28,0,0,0,.46.75,2.29,2.29,0,0,0,.71.52A2.14,2.14,0,0,0-4477,35.59Z" transform="translate(4494.56 360)"/><path class="a" d="M-4461.58,37.68a4.85,4.85,0,0,1-1.84-.34,4.49,4.49,0,0,1-1.46-.94,4.39,4.39,0,0,1-1-1.41,4.3,4.3,0,0,1-.35-1.74v0a4.3,4.3,0,0,1,.35-1.74,4.43,4.43,0,0,1,1-1.42,4.64,4.64,0,0,1,1.47-1,4.8,4.8,0,0,1,1.86-.35,4.85,4.85,0,0,1,1.84.34,4.49,4.49,0,0,1,1.46.94,4.39,4.39,0,0,1,1,1.41,4.3,4.3,0,0,1,.35,1.74v0a4.31,4.31,0,0,1-.35,1.74,4.43,4.43,0,0,1-1,1.42,4.62,4.62,0,0,1-1.47,1A4.8,4.8,0,0,1-4461.58,37.68Zm0-2.1a2.26,2.26,0,0,0,.94-0.18,2.06,2.06,0,0,0,.7-0.5,2.21,2.21,0,0,0,.44-0.74,2.66,2.66,0,0,0,.15-0.9v0a2.55,2.55,0,0,0-.16-0.9,2.29,2.29,0,0,0-.46-0.75,2.27,2.27,0,0,0-.72-0.52,2.15,2.15,0,0,0-.91-0.19,2.26,2.26,0,0,0-.94.18,2.06,2.06,0,0,0-.7.5,2.21,2.21,0,0,0-.44.74,2.65,2.65,0,0,0-.15.9v0a2.54,2.54,0,0,0,.16.9,2.28,2.28,0,0,0,.46.75,2.29,2.29,0,0,0,.71.52A2.14,2.14,0,0,0-4461.55,35.59Z" transform="translate(4494.56 360)"/><path class="a" d="M-4454.75,31h-1V29h1V28.45a2.83,2.83,0,0,1,.69-2.08,2.67,2.67,0,0,1,2-.67,6.49,6.49,0,0,1,1,.06,4.7,4.7,0,0,1,.74.18v2a4.42,4.42,0,0,0-.53-0.15,2.72,2.72,0,0,0-.58-0.06,0.8,0.8,0,0,0-.88.93V29h2v2h-1.94v6.5h-2.43V31Z" transform="translate(4494.56 360)"/><path class="a" d="M-4440.16,26.21h2.27l4.8,11.28h-2.58l-1-2.51h-4.74l-1,2.51H-4445Zm2.59,6.59-1.49-3.63-1.49,3.63h3Z" transform="translate(4494.56 360)"/><path class="a" d="M-4428.1,37.65a3.81,3.81,0,0,1-1.46-.29,3.6,3.6,0,0,1-1.25-.86,4.26,4.26,0,0,1-.87-1.39,5.1,5.1,0,0,1-.33-1.9v0a5.1,5.1,0,0,1,.33-1.9,4.34,4.34,0,0,1,.86-1.39,3.52,3.52,0,0,1,1.24-.86,3.84,3.84,0,0,1,1.47-.29,3.06,3.06,0,0,1,1.61.38,4.29,4.29,0,0,1,1.06.9V25.81h2.43V37.49h-2.43V36.26a3.86,3.86,0,0,1-1.08,1A3,3,0,0,1-4428.1,37.65Zm0.62-2.06a2,2,0,0,0,.81-0.17,1.94,1.94,0,0,0,.66-0.48,2.38,2.38,0,0,0,.45-0.75,2.69,2.69,0,0,0,.17-1v0a2.69,2.69,0,0,0-.17-1,2.39,2.39,0,0,0-.45-0.75,1.93,1.93,0,0,0-.66-0.48,2,2,0,0,0-.81-0.17,2,2,0,0,0-.81.17,2,2,0,0,0-.66.48,2.33,2.33,0,0,0-.46.74,2.67,2.67,0,0,0-.17,1v0a2.69,2.69,0,0,0,.17,1,2.3,2.3,0,0,0,.46.75,2,2,0,0,0,.66.48A2,2,0,0,0-4427.47,35.59Z" transform="translate(4494.56 360)"/><path class="a" d="M-4418,37.65a2.74,2.74,0,0,1-2.15-.85,3.37,3.37,0,0,1-.76-2.34V28.92h2.43v4.77a1.93,1.93,0,0,0,.38,1.3,1.37,1.37,0,0,0,1.09.44,1.45,1.45,0,0,0,1.11-.44,1.85,1.85,0,0,0,.41-1.3V28.92h2.43v8.58h-2.43V36.26a5.25,5.25,0,0,1-.46.52,3.19,3.19,0,0,1-.55.44,2.73,2.73,0,0,1-.67.31A2.84,2.84,0,0,1-4418,37.65Z" transform="translate(4494.56 360)"/><path class="a" d="M-4410.74,25.81h2.43V37.49h-2.43V25.81Z" transform="translate(4494.56 360)"/><path class="a" d="M-4403.12,37.63a4,4,0,0,1-1-.12,1.81,1.81,0,0,1-.78-0.42,2,2,0,0,1-.51-0.79,3.55,3.55,0,0,1-.18-1.24V31h-1V28.92h1V26.72h2.43v2.19h2V31h-2v3.68a0.72,0.72,0,0,0,.78.83,2.38,2.38,0,0,0,1.2-.32v2a3.8,3.8,0,0,1-.85.36A3.85,3.85,0,0,1-4403.12,37.63Z" transform="translate(4494.56 360)"/><path class="a" d="M-4396.37,37.65a6,6,0,0,1-1.86-.31,6,6,0,0,1-1.82-1l1-1.6a5.77,5.77,0,0,0,1.4.77,3.78,3.78,0,0,0,1.3.26,1.35,1.35,0,0,0,.78-0.18,0.54,0.54,0,0,0,.25-0.46v0a0.46,0.46,0,0,0-.14-0.34,1.22,1.22,0,0,0-.39-0.25,5.78,5.78,0,0,0-.57-0.2l-0.67-.21a9,9,0,0,1-.9-0.31,3.23,3.23,0,0,1-.82-0.48,2.34,2.34,0,0,1-.6-0.73,2.2,2.2,0,0,1-.23-1.06v0a2.59,2.59,0,0,1,.25-1.16,2.58,2.58,0,0,1,.67-0.86,2.85,2.85,0,0,1,1-.53,4.12,4.12,0,0,1,1.22-.18,5.51,5.51,0,0,1,1.66.26,6.13,6.13,0,0,1,1.54.73l-0.93,1.68a7.6,7.6,0,0,0-1.25-.58,3.25,3.25,0,0,0-1.07-.22,1.12,1.12,0,0,0-.67.17,0.51,0.51,0,0,0-.22.42v0a0.42,0.42,0,0,0,.14.31,1.59,1.59,0,0,0,.38.26,5.05,5.05,0,0,0,.55.23l0.66,0.22q0.45,0.14.91,0.34a3.78,3.78,0,0,1,.83.49,2.43,2.43,0,0,1,.61.7,2,2,0,0,1,.24,1v0a2.86,2.86,0,0,1-.25,1.24,2.28,2.28,0,0,1-.7.86,3.13,3.13,0,0,1-1,.5A4.75,4.75,0,0,1-4396.37,37.65Z" transform="translate(4494.56 360)"/><path class="a" d="M-4386.56,28.92h2.58v2.56h-2.58V28.92Zm0,6h2.58v2.56h-2.58V34.93Z" transform="translate(4494.56 360)"/><rect class="b" x="140.06" y="383.5" width="312" height="19"/><path class="a" d="M-4493.6,66.29h2.27l5.25,6.9v-6.9h2.43v11.2h-2.1l-5.42-7.12v7.12h-2.43V66.29Z" transform="translate(4494.56 360)"/><path class="a" d="M-4477,77.68a4.85,4.85,0,0,1-1.84-.34,4.49,4.49,0,0,1-1.46-.94,4.39,4.39,0,0,1-1-1.41,4.3,4.3,0,0,1-.35-1.74v0a4.3,4.3,0,0,1,.35-1.74,4.43,4.43,0,0,1,1-1.42,4.64,4.64,0,0,1,1.47-1,4.8,4.8,0,0,1,1.86-.35,4.85,4.85,0,0,1,1.84.34,4.49,4.49,0,0,1,1.46.94,4.39,4.39,0,0,1,1,1.41,4.3,4.3,0,0,1,.35,1.74v0a4.31,4.31,0,0,1-.35,1.74,4.43,4.43,0,0,1-1,1.42,4.62,4.62,0,0,1-1.47,1A4.8,4.8,0,0,1-4477,77.68Zm0-2.1a2.26,2.26,0,0,0,.94-0.18,2.06,2.06,0,0,0,.7-0.5,2.21,2.21,0,0,0,.44-0.74,2.66,2.66,0,0,0,.15-0.9v0a2.55,2.55,0,0,0-.16-0.9,2.29,2.29,0,0,0-.46-0.75,2.27,2.27,0,0,0-.72-0.52,2.15,2.15,0,0,0-.91-0.19,2.26,2.26,0,0,0-.94.18,2.06,2.06,0,0,0-.7.5,2.21,2.21,0,0,0-.44.74,2.65,2.65,0,0,0-.15.9v0a2.54,2.54,0,0,0,.16.9,2.28,2.28,0,0,0,.46.75,2.29,2.29,0,0,0,.71.52A2.14,2.14,0,0,0-4477,75.59Z" transform="translate(4494.56 360)"/><path class="a" d="M-4461.58,77.68a4.85,4.85,0,0,1-1.84-.34,4.49,4.49,0,0,1-1.46-.94,4.39,4.39,0,0,1-1-1.41,4.3,4.3,0,0,1-.35-1.74v0a4.3,4.3,0,0,1,.35-1.74,4.43,4.43,0,0,1,1-1.42,4.64,4.64,0,0,1,1.47-1,4.8,4.8,0,0,1,1.86-.35,4.85,4.85,0,0,1,1.84.34,4.49,4.49,0,0,1,1.46.94,4.39,4.39,0,0,1,1,1.41,4.3,4.3,0,0,1,.35,1.74v0a4.31,4.31,0,0,1-.35,1.74,4.43,4.43,0,0,1-1,1.42,4.62,4.62,0,0,1-1.47,1A4.8,4.8,0,0,1-4461.58,77.68Zm0-2.1a2.26,2.26,0,0,0,.94-0.18,2.06,2.06,0,0,0,.7-0.5,2.21,2.21,0,0,0,.44-0.74,2.66,2.66,0,0,0,.15-0.9v0a2.55,2.55,0,0,0-.16-0.9,2.29,2.29,0,0,0-.46-0.75,2.27,2.27,0,0,0-.72-0.52,2.15,2.15,0,0,0-.91-0.19,2.26,2.26,0,0,0-.94.18,2.06,2.06,0,0,0-.7.5,2.21,2.21,0,0,0-.44.74,2.65,2.65,0,0,0-.15.9v0a2.54,2.54,0,0,0,.16.9,2.28,2.28,0,0,0,.46.75,2.29,2.29,0,0,0,.71.52A2.14,2.14,0,0,0-4461.55,75.59Z" transform="translate(4494.56 360)"/><path class="a" d="M-4454.75,71h-1V69h1V68.45a2.83,2.83,0,0,1,.69-2.08,2.67,2.67,0,0,1,2-.67,6.49,6.49,0,0,1,1,.06,4.7,4.7,0,0,1,.74.18v2a4.42,4.42,0,0,0-.53-0.15,2.72,2.72,0,0,0-.58-0.06,0.8,0.8,0,0,0-.88.93V69h2v2h-1.94v6.5h-2.43V71Z" transform="translate(4494.56 360)"/><path class="a" d="M-4438.75,77.68a5.79,5.79,0,0,1-2.29-.45,5.61,5.61,0,0,1-1.82-1.22,5.58,5.58,0,0,1-1.2-1.83,5.9,5.9,0,0,1-.43-2.26v0a5.84,5.84,0,0,1,.43-2.25,5.79,5.79,0,0,1,1.2-1.84,5.55,5.55,0,0,1,1.84-1.25,6,6,0,0,1,2.37-.46,7.44,7.44,0,0,1,1.43.13,6,6,0,0,1,1.18.35,5.11,5.11,0,0,1,1,.54,6.58,6.58,0,0,1,.83.7l-1.57,1.81a5.92,5.92,0,0,0-1.34-.93,3.39,3.39,0,0,0-1.53-.34,3.12,3.12,0,0,0-1.3.27,3.09,3.09,0,0,0-1,.75,3.51,3.51,0,0,0-.67,1.11,3.77,3.77,0,0,0-.24,1.35v0a3.84,3.84,0,0,0,.24,1.36,3.55,3.55,0,0,0,.66,1.12,3.1,3.1,0,0,0,1,.76,3.08,3.08,0,0,0,1.32.28,3.43,3.43,0,0,0,1.62-.35,6.3,6.3,0,0,0,1.32-1l1.57,1.58a8.11,8.11,0,0,1-.9.83,5.31,5.31,0,0,1-1,.63,5.26,5.26,0,0,1-1.21.4A7.3,7.3,0,0,1-4438.75,77.68Z" transform="translate(4494.56 360)"/><path class="a" d="M-4432.45,65.81h2.43v4.33a5.13,5.13,0,0,1,.46-0.52,3.15,3.15,0,0,1,.55-0.44,2.74,2.74,0,0,1,.67-0.31,2.84,2.84,0,0,1,.83-0.11,2.74,2.74,0,0,1,2.15.85,3.38,3.38,0,0,1,.76,2.34v5.55H-4427V72.72a1.92,1.92,0,0,0-.38-1.3,1.37,1.37,0,0,0-1.09-.44,1.44,1.44,0,0,0-1.11.44,1.85,1.85,0,0,0-.41,1.3v4.77h-2.43V65.81Z" transform="translate(4494.56 360)"/><path class="a" d="M-4422.43,65.81h2.56V68h-2.56V65.81Zm0.06,3.1h2.43v8.58h-2.43V68.92Z" transform="translate(4494.56 360)"/><path class="a" d="M-4417.54,65.81h2.43V77.49h-2.43V65.81Z" transform="translate(4494.56 360)"/><path class="a" d="M-4409.3,77.65a3.81,3.81,0,0,1-1.46-.29,3.6,3.6,0,0,1-1.25-.86,4.26,4.26,0,0,1-.87-1.39,5.1,5.1,0,0,1-.33-1.9v0a5.1,5.1,0,0,1,.33-1.9,4.34,4.34,0,0,1,.86-1.39,3.52,3.52,0,0,1,1.24-.86,3.84,3.84,0,0,1,1.47-.29,3.06,3.06,0,0,1,1.61.38,4.29,4.29,0,0,1,1.06.9V65.81h2.43V77.49h-2.43V76.26a3.86,3.86,0,0,1-1.08,1A3,3,0,0,1-4409.3,77.65Zm0.62-2.06a2,2,0,0,0,.81-0.17,1.94,1.94,0,0,0,.66-0.48,2.38,2.38,0,0,0,.45-0.75,2.69,2.69,0,0,0,.17-1v0a2.69,2.69,0,0,0-.17-1,2.39,2.39,0,0,0-.45-0.75,1.93,1.93,0,0,0-.66-0.48,2,2,0,0,0-.81-0.17,2,2,0,0,0-.81.17,2,2,0,0,0-.66.48,2.33,2.33,0,0,0-.46.74,2.67,2.67,0,0,0-.17,1v0a2.69,2.69,0,0,0,.17,1,2.3,2.3,0,0,0,.46.75,2,2,0,0,0,.66.48A2,2,0,0,0-4408.67,75.59Z" transform="translate(4494.56 360)"/><path class="a" d="M-4402,68.92h2.43v1.73a3.57,3.57,0,0,1,1-1.41,2.45,2.45,0,0,1,1.73-.48V71.3H-4397a2.5,2.5,0,0,0-1.91.74,3.24,3.24,0,0,0-.7,2.29v3.17H-4402V68.92Z" transform="translate(4494.56 360)"/><path class="a" d="M-4391.27,77.68a4.88,4.88,0,0,1-1.78-.32,4.12,4.12,0,0,1-1.42-.91,4.21,4.21,0,0,1-.94-1.4,4.64,4.64,0,0,1-.34-1.8v0a4.8,4.8,0,0,1,.31-1.73,4.4,4.4,0,0,1,.87-1.42,4.1,4.1,0,0,1,1.34-1,4.12,4.12,0,0,1,1.72-.35,4.18,4.18,0,0,1,1.86.38,3.77,3.77,0,0,1,1.3,1,4.29,4.29,0,0,1,.77,1.49,6.16,6.16,0,0,1,.25,1.75q0,0.14,0,.3c0,0.11,0,.22,0,0.34h-6a2,2,0,0,0,.73,1.26,2.18,2.18,0,0,0,1.37.42,2.71,2.71,0,0,0,1.09-.21,3.69,3.69,0,0,0,1-.67l1.39,1.23a4.32,4.32,0,0,1-1.47,1.18A4.57,4.57,0,0,1-4391.27,77.68Zm1.57-5.15a2.37,2.37,0,0,0-.58-1.32,1.59,1.59,0,0,0-1.23-.5,1.63,1.63,0,0,0-1.24.5,2.49,2.49,0,0,0-.62,1.33h3.66Z" transform="translate(4494.56 360)"/><path class="a" d="M-4385.52,68.92h2.43v1.23a5.13,5.13,0,0,1,.46-0.52,3.15,3.15,0,0,1,.55-0.44,2.74,2.74,0,0,1,.67-0.31,2.84,2.84,0,0,1,.83-0.11,2.74,2.74,0,0,1,2.15.85,3.38,3.38,0,0,1,.76,2.34v5.55h-2.43V72.72a1.92,1.92,0,0,0-.38-1.3,1.37,1.37,0,0,0-1.09-.44,1.44,1.44,0,0,0-1.11.44,1.85,1.85,0,0,0-.41,1.3v4.77h-2.43V68.92Z" transform="translate(4494.56 360)"/><path class="a" d="M-4370.77,68.92h2.58v2.56h-2.58V68.92Zm0,6h2.58v2.56h-2.58V74.93Z" transform="translate(4494.56 360)"/><rect class="b" x="140.06" y="423.5" width="312" height="19"/><path class="a" d="M-4493.6,315.29h2.46v4.43h4.54v-4.43h2.46v11.2h-2.46V322h-4.54v4.5h-2.46v-11.2Z" transform="translate(4494.56 360)"/><path class="a" d="M-4477.49,326.68a4.85,4.85,0,0,1-1.84-.34,4.49,4.49,0,0,1-1.46-.94,4.39,4.39,0,0,1-1-1.41,4.3,4.3,0,0,1-.35-1.74v0a4.3,4.3,0,0,1,.35-1.74,4.43,4.43,0,0,1,1-1.42,4.64,4.64,0,0,1,1.47-1,4.8,4.8,0,0,1,1.86-.35,4.85,4.85,0,0,1,1.84.34,4.49,4.49,0,0,1,1.46.94,4.39,4.39,0,0,1,1,1.41,4.3,4.3,0,0,1,.35,1.74v0a4.31,4.31,0,0,1-.35,1.74,4.43,4.43,0,0,1-1,1.42,4.62,4.62,0,0,1-1.47,1A4.8,4.8,0,0,1-4477.49,326.68Zm0-2.1a2.26,2.26,0,0,0,.94-0.18,2.06,2.06,0,0,0,.7-0.5,2.21,2.21,0,0,0,.44-0.74,2.66,2.66,0,0,0,.15-0.9v0a2.55,2.55,0,0,0-.16-0.9,2.29,2.29,0,0,0-.46-0.75,2.27,2.27,0,0,0-.72-0.52,2.15,2.15,0,0,0-.91-0.19,2.26,2.26,0,0,0-.94.18,2.06,2.06,0,0,0-.7.5,2.21,2.21,0,0,0-.44.74,2.65,2.65,0,0,0-.15.9v0a2.54,2.54,0,0,0,.16.9,2.28,2.28,0,0,0,.46.75,2.29,2.29,0,0,0,.71.52A2.14,2.14,0,0,0-4477.46,324.59Z" transform="translate(4494.56 360)"/><path class="a" d="M-4471.78,317.92h2.46l1.38,5.2,1.62-5.23h2.1l1.63,5.25,1.41-5.22h2.42l-2.67,8.64h-2.19l-1.65-5.26-1.68,5.26h-2.18Z" transform="translate(4494.56 360)"/><path class="a" d="M-4449,326.65a3.81,3.81,0,0,1-1.46-.29,3.6,3.6,0,0,1-1.25-.86,4.26,4.26,0,0,1-.87-1.39,5.1,5.1,0,0,1-.33-1.9v0a5.1,5.1,0,0,1,.33-1.9,4.34,4.34,0,0,1,.86-1.39,3.52,3.52,0,0,1,1.24-.86,3.84,3.84,0,0,1,1.47-.29,3.06,3.06,0,0,1,1.61.38,4.29,4.29,0,0,1,1.06.9v-4.22h2.43v11.68h-2.43v-1.23a3.86,3.86,0,0,1-1.08,1A3,3,0,0,1-4449,326.65Zm0.62-2.06a2,2,0,0,0,.81-0.17,1.94,1.94,0,0,0,.66-0.48,2.38,2.38,0,0,0,.45-0.75,2.69,2.69,0,0,0,.17-1v0a2.69,2.69,0,0,0-.17-1,2.39,2.39,0,0,0-.45-0.75,1.93,1.93,0,0,0-.66-0.48,2,2,0,0,0-.81-0.17,2,2,0,0,0-.81.17,2,2,0,0,0-.66.48,2.33,2.33,0,0,0-.46.74,2.67,2.67,0,0,0-.17,1v0a2.69,2.69,0,0,0,.17,1,2.3,2.3,0,0,0,.46.75,2,2,0,0,0,.66.48A2,2,0,0,0-4448.35,324.59Z" transform="translate(4494.56 360)"/><path class="a" d="M-4441.65,314.81h2.56V317h-2.56v-2.16Zm0.06,3.1h2.43v8.58h-2.43v-8.58Z" transform="translate(4494.56 360)"/><path class="a" d="M-4433.34,326.65a3.81,3.81,0,0,1-1.46-.29,3.6,3.6,0,0,1-1.25-.86,4.26,4.26,0,0,1-.87-1.39,5.1,5.1,0,0,1-.33-1.9v0a5.1,5.1,0,0,1,.33-1.9,4.34,4.34,0,0,1,.86-1.39,3.52,3.52,0,0,1,1.24-.86,3.84,3.84,0,0,1,1.47-.29,3.06,3.06,0,0,1,1.61.38,4.29,4.29,0,0,1,1.06.9v-4.22h2.43v11.68h-2.43v-1.23a3.86,3.86,0,0,1-1.08,1A3,3,0,0,1-4433.34,326.65Zm0.62-2.06a2,2,0,0,0,.81-0.17,1.94,1.94,0,0,0,.66-0.48,2.38,2.38,0,0,0,.45-0.75,2.69,2.69,0,0,0,.17-1v0a2.69,2.69,0,0,0-.17-1,2.39,2.39,0,0,0-.45-0.75,1.93,1.93,0,0,0-.66-0.48,2,2,0,0,0-.81-0.17,2,2,0,0,0-.81.17,2,2,0,0,0-.66.48,2.33,2.33,0,0,0-.46.74,2.67,2.67,0,0,0-.17,1v0a2.69,2.69,0,0,0,.17,1,2.3,2.3,0,0,0,.46.75,2,2,0,0,0,.66.48A2,2,0,0,0-4432.72,324.59Z" transform="translate(4494.56 360)"/><path class="a" d="M-4419.22,329.1a4,4,0,0,1-1.18-.16,4.68,4.68,0,0,1-1-.43l0.82-1.76a2.73,2.73,0,0,0,.52.24,1.61,1.61,0,0,0,.52.1,0.91,0.91,0,0,0,.5-0.12,1.1,1.1,0,0,0,.34-0.44l-3.36-8.61h2.58l2,5.84,1.87-5.84h2.53l-3.3,8.78a6.62,6.62,0,0,1-.51,1.11,3.08,3.08,0,0,1-.6.74,2,2,0,0,1-.74.42A3.28,3.28,0,0,1-4419.22,329.1Z" transform="translate(4494.56 360)"/><path class="a" d="M-4407.46,326.68a4.85,4.85,0,0,1-1.84-.34,4.49,4.49,0,0,1-1.46-.94,4.39,4.39,0,0,1-1-1.41,4.3,4.3,0,0,1-.35-1.74v0a4.3,4.3,0,0,1,.35-1.74,4.43,4.43,0,0,1,1-1.42,4.64,4.64,0,0,1,1.47-1,4.8,4.8,0,0,1,1.86-.35,4.85,4.85,0,0,1,1.84.34,4.49,4.49,0,0,1,1.46.94,4.39,4.39,0,0,1,1,1.41,4.3,4.3,0,0,1,.35,1.74v0a4.31,4.31,0,0,1-.35,1.74,4.43,4.43,0,0,1-1,1.42,4.62,4.62,0,0,1-1.47,1A4.8,4.8,0,0,1-4407.46,326.68Zm0-2.1a2.26,2.26,0,0,0,.94-0.18,2.06,2.06,0,0,0,.7-0.5,2.21,2.21,0,0,0,.44-0.74,2.66,2.66,0,0,0,.15-0.9v0a2.55,2.55,0,0,0-.16-0.9,2.29,2.29,0,0,0-.46-0.75,2.27,2.27,0,0,0-.72-0.52,2.15,2.15,0,0,0-.91-0.19,2.26,2.26,0,0,0-.94.18,2.06,2.06,0,0,0-.7.5,2.21,2.21,0,0,0-.44.74,2.65,2.65,0,0,0-.15.9v0a2.54,2.54,0,0,0,.16.9,2.28,2.28,0,0,0,.46.75,2.29,2.29,0,0,0,.71.52A2.14,2.14,0,0,0-4407.42,324.59Z" transform="translate(4494.56 360)"/><path class="a" d="M-4398.19,326.65a2.74,2.74,0,0,1-2.15-.85,3.37,3.37,0,0,1-.76-2.34v-5.55h2.43v4.77a1.93,1.93,0,0,0,.38,1.3,1.37,1.37,0,0,0,1.09.44,1.45,1.45,0,0,0,1.11-.44,1.85,1.85,0,0,0,.41-1.3v-4.77h2.43v8.58h-2.43v-1.23a5.25,5.25,0,0,1-.46.52,3.19,3.19,0,0,1-.55.44,2.73,2.73,0,0,1-.67.31A2.84,2.84,0,0,1-4398.19,326.65Z" transform="translate(4494.56 360)"/><path class="a" d="M-4493.86,334h2.43v4.33a5.19,5.19,0,0,1,.46-0.52,3.17,3.17,0,0,1,.55-0.44,2.74,2.74,0,0,1,.67-0.31,2.84,2.84,0,0,1,.83-0.11,2.74,2.74,0,0,1,2.15.85,3.38,3.38,0,0,1,.76,2.34v5.55h-2.43v-4.77a1.92,1.92,0,0,0-.38-1.3,1.37,1.37,0,0,0-1.09-.44,1.44,1.44,0,0,0-1.11.44,1.85,1.85,0,0,0-.41,1.3v4.77h-2.43V334Z" transform="translate(4494.56 360)"/><path class="a" d="M-4479.82,345.88a4.89,4.89,0,0,1-1.78-.32,4.12,4.12,0,0,1-1.42-.91,4.22,4.22,0,0,1-.94-1.4,4.65,4.65,0,0,1-.34-1.8v0a4.8,4.8,0,0,1,.31-1.73,4.39,4.39,0,0,1,.87-1.42,4.1,4.1,0,0,1,1.34-1,4.12,4.12,0,0,1,1.72-.35,4.18,4.18,0,0,1,1.86.38,3.77,3.77,0,0,1,1.3,1,4.3,4.3,0,0,1,.77,1.49,6.16,6.16,0,0,1,.25,1.75c0,0.1,0,.2,0,0.3s0,0.22,0,.34h-6a2,2,0,0,0,.73,1.26,2.18,2.18,0,0,0,1.37.42,2.71,2.71,0,0,0,1.09-.21,3.7,3.7,0,0,0,1-.67l1.39,1.23a4.32,4.32,0,0,1-1.47,1.18A4.57,4.57,0,0,1-4479.82,345.88Zm1.57-5.15a2.37,2.37,0,0,0-.58-1.32,1.59,1.59,0,0,0-1.23-.5,1.63,1.63,0,0,0-1.24.5,2.49,2.49,0,0,0-.62,1.33h3.66Z" transform="translate(4494.56 360)"/><path class="a" d="M-4471.65,345.85a3.79,3.79,0,0,1-1.14-.17,2.7,2.7,0,0,1-.94-0.5,2.41,2.41,0,0,1-.63-0.82,2.6,2.6,0,0,1-.23-1.13v0a2.69,2.69,0,0,1,.26-1.22,2.33,2.33,0,0,1,.71-0.85,3.19,3.19,0,0,1,1.09-.5,5.43,5.43,0,0,1,1.4-.17,6,6,0,0,1,1.14.1,7.18,7.18,0,0,1,1,.26v-0.14a1.46,1.46,0,0,0-.46-1.17,2.06,2.06,0,0,0-1.38-.4,5.71,5.71,0,0,0-1.24.12,8.34,8.34,0,0,0-1.13.34l-0.61-1.86a9.49,9.49,0,0,1,1.47-.5,7.75,7.75,0,0,1,1.86-.19,5.27,5.27,0,0,1,1.72.25,3.06,3.06,0,0,1,1.18.71,2.88,2.88,0,0,1,.7,1.18,5.08,5.08,0,0,1,.22,1.56v5h-2.35v-0.93a3.37,3.37,0,0,1-1.07.79A3.53,3.53,0,0,1-4471.65,345.85Zm0.74-1.68a2.15,2.15,0,0,0,1.38-.42,1.33,1.33,0,0,0,.52-1.09v-0.43a3.73,3.73,0,0,0-.71-0.23,3.84,3.84,0,0,0-.84-0.09,2.17,2.17,0,0,0-1.23.3,1,1,0,0,0-.45.88v0a0.9,0.9,0,0,0,.37.77A1.57,1.57,0,0,0-4470.91,344.17Z" transform="translate(4494.56 360)"/><path class="a" d="M-4464.61,337.12h2.43v1.73a3.56,3.56,0,0,1,1-1.41,2.46,2.46,0,0,1,1.73-.48v2.54h-0.13a2.51,2.51,0,0,0-1.91.74,3.24,3.24,0,0,0-.7,2.29v3.17h-2.43v-8.58Z" transform="translate(4494.56 360)"/><path class="a" d="M-4450.69,345.85a3.79,3.79,0,0,1-1.14-.17,2.7,2.7,0,0,1-.94-0.5,2.41,2.41,0,0,1-.63-0.82,2.6,2.6,0,0,1-.23-1.13v0a2.69,2.69,0,0,1,.26-1.22,2.33,2.33,0,0,1,.71-0.85,3.19,3.19,0,0,1,1.09-.5,5.43,5.43,0,0,1,1.4-.17,6,6,0,0,1,1.14.1,7.18,7.18,0,0,1,1,.26v-0.14a1.46,1.46,0,0,0-.46-1.17,2.06,2.06,0,0,0-1.38-.4,5.71,5.71,0,0,0-1.24.12,8.34,8.34,0,0,0-1.13.34l-0.61-1.86a9.49,9.49,0,0,1,1.47-.5,7.75,7.75,0,0,1,1.86-.19,5.27,5.27,0,0,1,1.72.25,3.06,3.06,0,0,1,1.18.71,2.88,2.88,0,0,1,.7,1.18,5.08,5.08,0,0,1,.22,1.56v5h-2.35v-0.93a3.37,3.37,0,0,1-1.07.79A3.53,3.53,0,0,1-4450.69,345.85Zm0.74-1.68a2.15,2.15,0,0,0,1.38-.42,1.33,1.33,0,0,0,.52-1.09v-0.43a3.73,3.73,0,0,0-.71-0.23,3.84,3.84,0,0,0-.84-0.09,2.17,2.17,0,0,0-1.23.3,1,1,0,0,0-.45.88v0a0.9,0.9,0,0,0,.37.77A1.57,1.57,0,0,0-4450,344.17Z" transform="translate(4494.56 360)"/><path class="a" d="M-4438.54,345.85a3.06,3.06,0,0,1-1.61-.38,4.28,4.28,0,0,1-1.06-.9v1.12h-2.43V334h2.43v4.34a3.86,3.86,0,0,1,1.08-1,3,3,0,0,1,1.59-.39,3.81,3.81,0,0,1,1.46.29,3.61,3.61,0,0,1,1.25.86,4.27,4.27,0,0,1,.87,1.39,5.1,5.1,0,0,1,.33,1.9v0a5.1,5.1,0,0,1-.33,1.9,4.34,4.34,0,0,1-.86,1.39,3.53,3.53,0,0,1-1.24.86A3.84,3.84,0,0,1-4438.54,345.85Zm-0.62-2.06a2,2,0,0,0,.81-0.17,2,2,0,0,0,.66-0.48,2.33,2.33,0,0,0,.46-0.74,2.68,2.68,0,0,0,.17-1v0a2.69,2.69,0,0,0-.17-1,2.31,2.31,0,0,0-.46-0.75,2,2,0,0,0-.66-0.48,2,2,0,0,0-.81-0.17,2,2,0,0,0-.81.17,1.94,1.94,0,0,0-.66.48,2.38,2.38,0,0,0-.45.75,2.69,2.69,0,0,0-.17,1v0a2.69,2.69,0,0,0,.17,1,2.38,2.38,0,0,0,.45.75,1.93,1.93,0,0,0,.66.48A2,2,0,0,0-4439.17,343.79Z" transform="translate(4494.56 360)"/><path class="a" d="M-4428.64,345.88a4.85,4.85,0,0,1-1.84-.34,4.48,4.48,0,0,1-1.46-.94,4.39,4.39,0,0,1-1-1.41,4.3,4.3,0,0,1-.35-1.74v0a4.3,4.3,0,0,1,.35-1.74,4.43,4.43,0,0,1,1-1.42,4.63,4.63,0,0,1,1.47-1,4.8,4.8,0,0,1,1.86-.35,4.85,4.85,0,0,1,1.84.34,4.5,4.5,0,0,1,1.46.94,4.41,4.41,0,0,1,1,1.41,4.31,4.31,0,0,1,.35,1.74v0a4.3,4.3,0,0,1-.35,1.74,4.42,4.42,0,0,1-1,1.42,4.62,4.62,0,0,1-1.47,1A4.8,4.8,0,0,1-4428.64,345.88Zm0-2.1a2.25,2.25,0,0,0,.94-0.18,2.05,2.05,0,0,0,.7-0.5,2.21,2.21,0,0,0,.44-0.74,2.66,2.66,0,0,0,.15-0.9v0a2.54,2.54,0,0,0-.16-0.9,2.29,2.29,0,0,0-.46-0.75,2.26,2.26,0,0,0-.72-0.52,2.15,2.15,0,0,0-.91-0.19,2.26,2.26,0,0,0-.94.18,2.07,2.07,0,0,0-.7.5,2.21,2.21,0,0,0-.44.74,2.66,2.66,0,0,0-.15.9v0a2.54,2.54,0,0,0,.16.9,2.27,2.27,0,0,0,.46.75,2.29,2.29,0,0,0,.71.52A2.14,2.14,0,0,0-4428.61,343.79Z" transform="translate(4494.56 360)"/><path class="a" d="M-4419.38,345.85a2.74,2.74,0,0,1-2.15-.85,3.38,3.38,0,0,1-.76-2.34v-5.55h2.43v4.77a1.92,1.92,0,0,0,.38,1.3,1.37,1.37,0,0,0,1.09.44,1.44,1.44,0,0,0,1.11-.44,1.85,1.85,0,0,0,.41-1.3v-4.77h2.43v8.58h-2.43v-1.23a5.19,5.19,0,0,1-.46.52,3.17,3.17,0,0,1-.55.44,2.76,2.76,0,0,1-.67.31A2.86,2.86,0,0,1-4419.38,345.85Z" transform="translate(4494.56 360)"/><path class="a" d="M-4409.36,345.84a4,4,0,0,1-1-.12,1.82,1.82,0,0,1-.78-0.42,2,2,0,0,1-.51-0.79,3.56,3.56,0,0,1-.18-1.24V339.2h-1v-2.08h1v-2.19h2.43v2.19h2v2.08h-2v3.68a0.72,0.72,0,0,0,.78.84,2.38,2.38,0,0,0,1.2-.32v2a3.78,3.78,0,0,1-.85.36A3.83,3.83,0,0,1-4409.36,345.84Z" transform="translate(4494.56 360)"/><path class="a" d="M-4398,345.85a2.74,2.74,0,0,1-2.15-.85,3.38,3.38,0,0,1-.76-2.34v-5.55h2.43v4.77a1.92,1.92,0,0,0,.38,1.3,1.37,1.37,0,0,0,1.09.44,1.44,1.44,0,0,0,1.11-.44,1.85,1.85,0,0,0,.41-1.3v-4.77h2.43v8.58h-2.43v-1.23a5.19,5.19,0,0,1-.46.52,3.17,3.17,0,0,1-.55.44,2.76,2.76,0,0,1-.67.31A2.86,2.86,0,0,1-4398,345.85Z" transform="translate(4494.56 360)"/><path class="a" d="M-4387.84,345.85a6,6,0,0,1-1.86-.31,6,6,0,0,1-1.82-1l1-1.6a5.79,5.79,0,0,0,1.4.77,3.78,3.78,0,0,0,1.3.26,1.36,1.36,0,0,0,.78-0.18,0.54,0.54,0,0,0,.25-0.46v0a0.46,0.46,0,0,0-.14-0.34,1.21,1.21,0,0,0-.39-0.25,5.9,5.9,0,0,0-.57-0.2l-0.67-.21a9,9,0,0,1-.9-0.31,3.24,3.24,0,0,1-.82-0.48,2.34,2.34,0,0,1-.6-0.73,2.21,2.21,0,0,1-.23-1.06v0a2.59,2.59,0,0,1,.25-1.16,2.59,2.59,0,0,1,.67-0.86,2.87,2.87,0,0,1,1-.53A4.12,4.12,0,0,1-4388,337a5.49,5.49,0,0,1,1.66.26,6.13,6.13,0,0,1,1.54.73l-0.93,1.68a7.64,7.64,0,0,0-1.25-.58,3.26,3.26,0,0,0-1.07-.22,1.12,1.12,0,0,0-.67.17,0.51,0.51,0,0,0-.22.42v0a0.42,0.42,0,0,0,.14.31,1.59,1.59,0,0,0,.38.26,5.06,5.06,0,0,0,.55.23l0.66,0.22q0.45,0.14.91,0.34a3.76,3.76,0,0,1,.83.49,2.42,2.42,0,0,1,.61.7,2,2,0,0,1,.24,1v0a2.86,2.86,0,0,1-.25,1.24,2.28,2.28,0,0,1-.7.86,3.15,3.15,0,0,1-1,.5A4.75,4.75,0,0,1-4387.84,345.85Z" transform="translate(4494.56 360)"/><path class="a" d="M-4378,337.12h2.58v2.56H-4378v-2.56Zm0,6h2.58v2.56H-4378v-2.56Z" transform="translate(4494.56 360)"/><rect class="b" x="140.06" y="690.5" width="312" height="19"/><path class="a" d="M-4489.76,105.21h2.27l4.8,11.28h-2.58l-1-2.51H-4491l-1,2.51h-2.51Zm2.59,6.59-1.49-3.63-1.49,3.63h3Z" transform="translate(4494.56 360)"/><path class="a" d="M-4477.38,119.08a8.57,8.57,0,0,1-2-.23,7.57,7.57,0,0,1-1.78-.66l0.83-1.82a7.2,7.2,0,0,0,1.35.58,5.28,5.28,0,0,0,1.54.21,2.54,2.54,0,0,0,1.85-.59,2.35,2.35,0,0,0,.6-1.74v-0.42a4.39,4.39,0,0,1-1.18,1,3.21,3.21,0,0,1-1.62.37,4,4,0,0,1-1.44-.26,3.57,3.57,0,0,1-1.22-.78,3.74,3.74,0,0,1-.84-1.26,4.37,4.37,0,0,1-.31-1.7v0a4.28,4.28,0,0,1,.32-1.7,3.83,3.83,0,0,1,.85-1.26,3.56,3.56,0,0,1,1.22-.78,4,4,0,0,1,1.42-.26,3.24,3.24,0,0,1,1.63.37,4.69,4.69,0,0,1,1.14.91v-1.12h2.43v6.64a4.6,4.6,0,0,1-1.09,3.38,3.54,3.54,0,0,1-1.53.88A7.68,7.68,0,0,1-4477.38,119.08Zm0.29-5.31a2.36,2.36,0,0,0,.83-0.14,2,2,0,0,0,.66-0.41,1.9,1.9,0,0,0,.44-0.63,2,2,0,0,0,.16-0.8v0a2,2,0,0,0-.16-0.8,1.91,1.91,0,0,0-.44-0.63,2,2,0,0,0-.66-0.41,2.34,2.34,0,0,0-.83-0.14,2.27,2.27,0,0,0-.82.14,2,2,0,0,0-.66.41,1.9,1.9,0,0,0-.44.63,2,2,0,0,0-.16.8v0a1.86,1.86,0,0,0,.59,1.44A2.11,2.11,0,0,0-4477.09,113.77Z" transform="translate(4494.56 360)"/><path class="a" d="M-4466.35,116.68a4.89,4.89,0,0,1-1.78-.32,4.12,4.12,0,0,1-1.42-.91,4.21,4.21,0,0,1-.94-1.4,4.64,4.64,0,0,1-.34-1.8v0a4.8,4.8,0,0,1,.31-1.73,4.4,4.4,0,0,1,.87-1.42,4.1,4.1,0,0,1,1.34-1,4.12,4.12,0,0,1,1.72-.35,4.18,4.18,0,0,1,1.86.38,3.77,3.77,0,0,1,1.3,1,4.29,4.29,0,0,1,.77,1.49,6.16,6.16,0,0,1,.25,1.75q0,0.14,0,.3c0,0.11,0,.22,0,0.34h-6a2,2,0,0,0,.73,1.26,2.18,2.18,0,0,0,1.37.42,2.71,2.71,0,0,0,1.09-.21,3.69,3.69,0,0,0,1-.67l1.39,1.23a4.32,4.32,0,0,1-1.47,1.18A4.57,4.57,0,0,1-4466.35,116.68Zm1.57-5.15a2.37,2.37,0,0,0-.58-1.32,1.59,1.59,0,0,0-1.23-.5,1.63,1.63,0,0,0-1.24.5,2.49,2.49,0,0,0-.62,1.33h3.66Z" transform="translate(4494.56 360)"/><path class="a" d="M-4457.6,116.65a6,6,0,0,1-1.86-.31,6,6,0,0,1-1.82-1l1-1.6a5.77,5.77,0,0,0,1.4.77,3.78,3.78,0,0,0,1.3.26,1.35,1.35,0,0,0,.78-0.18,0.54,0.54,0,0,0,.25-0.46v0a0.46,0.46,0,0,0-.14-0.34,1.22,1.22,0,0,0-.39-0.25,5.78,5.78,0,0,0-.57-0.2l-0.67-.21a9,9,0,0,1-.9-0.31,3.23,3.23,0,0,1-.82-0.48,2.34,2.34,0,0,1-.6-0.73,2.2,2.2,0,0,1-.23-1.06v0a2.59,2.59,0,0,1,.25-1.16,2.58,2.58,0,0,1,.67-0.86,2.85,2.85,0,0,1,1-.53,4.12,4.12,0,0,1,1.22-.18,5.51,5.51,0,0,1,1.66.26,6.13,6.13,0,0,1,1.54.73l-0.93,1.68a7.6,7.6,0,0,0-1.25-.58,3.25,3.25,0,0,0-1.07-.22,1.12,1.12,0,0,0-.67.17,0.51,0.51,0,0,0-.22.42v0a0.42,0.42,0,0,0,.14.31,1.59,1.59,0,0,0,.38.26,5.05,5.05,0,0,0,.55.23l0.66,0.22q0.45,0.14.91,0.34a3.78,3.78,0,0,1,.83.49,2.43,2.43,0,0,1,.61.7,2,2,0,0,1,.24,1v0a2.86,2.86,0,0,1-.25,1.24,2.28,2.28,0,0,1-.7.86,3.13,3.13,0,0,1-1,.5A4.75,4.75,0,0,1-4457.6,116.65Z" transform="translate(4494.56 360)"/><path class="a" d="M-4444.93,116.65a2.74,2.74,0,0,1-2.15-.85,3.37,3.37,0,0,1-.76-2.34v-5.55h2.43v4.77a1.93,1.93,0,0,0,.38,1.3,1.37,1.37,0,0,0,1.09.44,1.45,1.45,0,0,0,1.11-.44,1.85,1.85,0,0,0,.41-1.3v-4.77h2.43v8.58h-2.43v-1.23a5.25,5.25,0,0,1-.46.52,3.19,3.19,0,0,1-.55.44,2.73,2.73,0,0,1-.67.31A2.84,2.84,0,0,1-4444.93,116.65Z" transform="translate(4494.56 360)"/><path class="a" d="M-4437.81,107.92h2.43v1.23a5.13,5.13,0,0,1,.46-0.52,3.15,3.15,0,0,1,.55-0.44,2.74,2.74,0,0,1,.67-0.31,2.84,2.84,0,0,1,.83-0.11,2.74,2.74,0,0,1,2.15.85,3.38,3.38,0,0,1,.76,2.34v5.55h-2.43v-4.77a1.92,1.92,0,0,0-.38-1.3,1.37,1.37,0,0,0-1.09-.44,1.44,1.44,0,0,0-1.11.44,1.85,1.85,0,0,0-.41,1.3v4.77h-2.43v-8.58Z" transform="translate(4494.56 360)"/><path class="a" d="M-4424.32,116.65a3.81,3.81,0,0,1-1.46-.29,3.6,3.6,0,0,1-1.25-.86,4.26,4.26,0,0,1-.87-1.39,5.1,5.1,0,0,1-.33-1.9v0a5.1,5.1,0,0,1,.33-1.9,4.34,4.34,0,0,1,.86-1.39,3.52,3.52,0,0,1,1.24-.86,3.84,3.84,0,0,1,1.47-.29,3.06,3.06,0,0,1,1.61.38,4.29,4.29,0,0,1,1.06.9v-4.22h2.43v11.68h-2.43v-1.23a3.86,3.86,0,0,1-1.08,1A3,3,0,0,1-4424.32,116.65Zm0.62-2.06a2,2,0,0,0,.81-0.17,1.94,1.94,0,0,0,.66-0.48,2.38,2.38,0,0,0,.45-0.75,2.69,2.69,0,0,0,.17-1v0a2.69,2.69,0,0,0-.17-1,2.39,2.39,0,0,0-.45-0.75,1.93,1.93,0,0,0-.66-0.48,2,2,0,0,0-.81-0.17,2,2,0,0,0-.81.17,2,2,0,0,0-.66.48,2.33,2.33,0,0,0-.46.74,2.67,2.67,0,0,0-.17,1v0a2.69,2.69,0,0,0,.17,1,2.3,2.3,0,0,0,.46.75,2,2,0,0,0,.66.48A2,2,0,0,0-4423.7,114.59Z" transform="translate(4494.56 360)"/><path class="a" d="M-4413,116.68a4.89,4.89,0,0,1-1.78-.32,4.12,4.12,0,0,1-1.42-.91,4.21,4.21,0,0,1-.94-1.4,4.64,4.64,0,0,1-.34-1.8v0a4.8,4.8,0,0,1,.31-1.73,4.4,4.4,0,0,1,.87-1.42,4.1,4.1,0,0,1,1.34-1,4.12,4.12,0,0,1,1.72-.35,4.18,4.18,0,0,1,1.86.38,3.77,3.77,0,0,1,1.3,1,4.29,4.29,0,0,1,.77,1.49,6.16,6.16,0,0,1,.25,1.75q0,0.14,0,.3c0,0.11,0,.22,0,0.34h-6a2,2,0,0,0,.73,1.26,2.18,2.18,0,0,0,1.37.42,2.71,2.71,0,0,0,1.09-.21,3.69,3.69,0,0,0,1-.67l1.39,1.23a4.32,4.32,0,0,1-1.47,1.18A4.57,4.57,0,0,1-4413,116.68Zm1.57-5.15a2.37,2.37,0,0,0-.58-1.32,1.59,1.59,0,0,0-1.23-.5,1.63,1.63,0,0,0-1.24.5,2.49,2.49,0,0,0-.62,1.33h3.66Z" transform="translate(4494.56 360)"/><path class="a" d="M-4407.23,107.92h2.43v1.73a3.57,3.57,0,0,1,1-1.41,2.45,2.45,0,0,1,1.73-.48v2.54h-0.13a2.5,2.5,0,0,0-1.91.74,3.24,3.24,0,0,0-.7,2.29v3.17h-2.43v-8.58Z" transform="translate(4494.56 360)"/><path class="a" d="M-4394,107.71l-2,.48-0.51-2,3.22-1h1.68v11.28H-4394v-8.78Z" transform="translate(4494.56 360)"/><path class="a" d="M-4384.66,116.68a5.11,5.11,0,0,1-1.87-.3,4,4,0,0,1-1.36-.9,4.3,4.3,0,0,1-1-1.59,7.91,7.91,0,0,1-.36-2.65v0a9.42,9.42,0,0,1,.3-2.42,5.6,5.6,0,0,1,.9-1.94,4.34,4.34,0,0,1,1.54-1.29,4.74,4.74,0,0,1,2.18-.47,6.46,6.46,0,0,1,1.06.08,4.64,4.64,0,0,1,.9.24,5.1,5.1,0,0,1,.8.39,7.63,7.63,0,0,1,.75.52l-1.3,1.9-0.53-.38a3.18,3.18,0,0,0-.53-0.28,3.36,3.36,0,0,0-.58-0.18,3.2,3.2,0,0,0-.66-0.06,2,2,0,0,0-.92.2,2.08,2.08,0,0,0-.67.55,2.6,2.6,0,0,0-.44.83,5.16,5.16,0,0,0-.22,1,5.89,5.89,0,0,1,1-.5,3.57,3.57,0,0,1,1.37-.22,5,5,0,0,1,1.55.23,3.63,3.63,0,0,1,1.25.68,3.16,3.16,0,0,1,.83,1.11,3.69,3.69,0,0,1,.3,1.54v0a3.72,3.72,0,0,1-.33,1.58,3.73,3.73,0,0,1-.9,1.22,4,4,0,0,1-1.35.79A5,5,0,0,1-4384.66,116.68Zm-0.09-2.13a2,2,0,0,0,1.42-.46,1.52,1.52,0,0,0,.51-1.18v0a1.48,1.48,0,0,0-.52-1.17,2.12,2.12,0,0,0-1.44-.45,2.08,2.08,0,0,0-1.42.45,1.47,1.47,0,0,0-.51,1.16v0a1.53,1.53,0,0,0,.52,1.19A2.07,2.07,0,0,0-4384.74,114.55Z" transform="translate(4494.56 360)"/><path class="a" d="M-4373.62,107.92h2.58v2.56h-2.58v-2.56Zm0,6h2.58v2.56h-2.58v-2.56Z" transform="translate(4494.56 360)"/><rect class="b" x="140.06" y="462.5" width="312" height="19"/><path class="a" d="M-4489.76-278.79h2.27l4.8,11.28h-2.58l-1-2.51H-4491l-1,2.51h-2.51Zm2.59,6.59-1.49-3.63-1.49,3.63h3Z" transform="translate(4494.56 360)"/><path class="a" d="M-4477.7-267.35a3.81,3.81,0,0,1-1.46-.29,3.6,3.6,0,0,1-1.25-.86,4.26,4.26,0,0,1-.87-1.39,5.1,5.1,0,0,1-.33-1.9v0a5.1,5.1,0,0,1,.33-1.9,4.34,4.34,0,0,1,.86-1.39,3.52,3.52,0,0,1,1.24-.86,3.84,3.84,0,0,1,1.47-.29,3.06,3.06,0,0,1,1.61.38,4.29,4.29,0,0,1,1.06.9v-4.22h2.43v11.68H-4475v-1.23a3.86,3.86,0,0,1-1.08,1A3,3,0,0,1-4477.7-267.35Zm0.62-2.06a2,2,0,0,0,.81-0.17,1.94,1.94,0,0,0,.66-0.48,2.38,2.38,0,0,0,.45-0.75,2.69,2.69,0,0,0,.17-1v0a2.69,2.69,0,0,0-.17-1,2.39,2.39,0,0,0-.45-0.75,1.93,1.93,0,0,0-.66-0.48,2,2,0,0,0-.81-0.17,2,2,0,0,0-.81.17,2,2,0,0,0-.66.48,2.33,2.33,0,0,0-.46.74,2.67,2.67,0,0,0-.17,1v0a2.69,2.69,0,0,0,.17,1,2.3,2.3,0,0,0,.46.75,2,2,0,0,0,.66.48A2,2,0,0,0-4477.07-269.41Z" transform="translate(4494.56 360)"/><path class="a" d="M-4466.9-267.35a3.81,3.81,0,0,1-1.46-.29,3.6,3.6,0,0,1-1.25-.86,4.26,4.26,0,0,1-.87-1.39,5.1,5.1,0,0,1-.33-1.9v0a5.1,5.1,0,0,1,.33-1.9,4.34,4.34,0,0,1,.86-1.39,3.52,3.52,0,0,1,1.24-.86,3.84,3.84,0,0,1,1.47-.29,3.06,3.06,0,0,1,1.61.38,4.29,4.29,0,0,1,1.06.9v-4.22h2.43v11.68h-2.43v-1.23a3.86,3.86,0,0,1-1.08,1A3,3,0,0,1-4466.9-267.35Zm0.62-2.06a2,2,0,0,0,.81-0.17,1.94,1.94,0,0,0,.66-0.48,2.38,2.38,0,0,0,.45-0.75,2.69,2.69,0,0,0,.17-1v0a2.69,2.69,0,0,0-.17-1,2.39,2.39,0,0,0-.45-0.75,1.93,1.93,0,0,0-.66-0.48,2,2,0,0,0-.81-0.17,2,2,0,0,0-.81.17,2,2,0,0,0-.66.48,2.33,2.33,0,0,0-.46.74,2.67,2.67,0,0,0-.17,1v0a2.69,2.69,0,0,0,.17,1,2.3,2.3,0,0,0,.46.75,2,2,0,0,0,.66.48A2,2,0,0,0-4466.27-269.41Z" transform="translate(4494.56 360)"/><path class="a" d="M-4459.62-276.08h2.43v1.73a3.57,3.57,0,0,1,1-1.41,2.45,2.45,0,0,1,1.73-.48v2.54h-0.13a2.5,2.5,0,0,0-1.91.74,3.24,3.24,0,0,0-.7,2.29v3.17h-2.43v-8.58Z" transform="translate(4494.56 360)"/><path class="a" d="M-4448.86-267.32a4.89,4.89,0,0,1-1.78-.32,4.12,4.12,0,0,1-1.42-.91,4.21,4.21,0,0,1-.94-1.4,4.64,4.64,0,0,1-.34-1.8v0a4.8,4.8,0,0,1,.31-1.73,4.4,4.4,0,0,1,.87-1.42,4.1,4.1,0,0,1,1.34-1,4.12,4.12,0,0,1,1.72-.35,4.18,4.18,0,0,1,1.86.38,3.77,3.77,0,0,1,1.3,1,4.29,4.29,0,0,1,.77,1.49,6.16,6.16,0,0,1,.25,1.75q0,0.14,0,.3c0,0.11,0,.22,0,0.34h-6a2,2,0,0,0,.73,1.26,2.18,2.18,0,0,0,1.37.42,2.71,2.71,0,0,0,1.09-.21,3.69,3.69,0,0,0,1-.67l1.39,1.23a4.32,4.32,0,0,1-1.47,1.18A4.57,4.57,0,0,1-4448.86-267.32Zm1.57-5.15a2.37,2.37,0,0,0-.58-1.32,1.59,1.59,0,0,0-1.23-.5,1.63,1.63,0,0,0-1.24.5,2.49,2.49,0,0,0-.62,1.33h3.66Z" transform="translate(4494.56 360)"/><path class="a" d="M-4440.11-267.35a6,6,0,0,1-1.86-.31,6,6,0,0,1-1.82-1l1-1.6a5.77,5.77,0,0,0,1.4.77,3.78,3.78,0,0,0,1.3.26,1.35,1.35,0,0,0,.78-0.18,0.54,0.54,0,0,0,.25-0.46v0a0.46,0.46,0,0,0-.14-0.34,1.22,1.22,0,0,0-.39-0.25,5.78,5.78,0,0,0-.57-0.2l-0.67-.21a9,9,0,0,1-.9-0.31,3.23,3.23,0,0,1-.82-0.48,2.34,2.34,0,0,1-.6-0.73,2.2,2.2,0,0,1-.23-1.06v0a2.59,2.59,0,0,1,.25-1.16,2.58,2.58,0,0,1,.67-0.86,2.85,2.85,0,0,1,1-.53,4.12,4.12,0,0,1,1.22-.18,5.51,5.51,0,0,1,1.66.26,6.13,6.13,0,0,1,1.54.73l-0.93,1.68a7.6,7.6,0,0,0-1.25-.58,3.25,3.25,0,0,0-1.07-.22,1.12,1.12,0,0,0-.67.17,0.51,0.51,0,0,0-.22.42v0a0.42,0.42,0,0,0,.14.31,1.59,1.59,0,0,0,.38.26,5.05,5.05,0,0,0,.55.23l0.66,0.22q0.45,0.14.91,0.34a3.78,3.78,0,0,1,.83.49,2.43,2.43,0,0,1,.61.7,2,2,0,0,1,.24,1v0a2.86,2.86,0,0,1-.25,1.24,2.28,2.28,0,0,1-.7.86,3.13,3.13,0,0,1-1,.5A4.75,4.75,0,0,1-4440.11-267.35Z" transform="translate(4494.56 360)"/><path class="a" d="M-4432.08-267.35a6,6,0,0,1-1.86-.31,6,6,0,0,1-1.82-1l1-1.6a5.77,5.77,0,0,0,1.4.77,3.78,3.78,0,0,0,1.3.26,1.35,1.35,0,0,0,.78-0.18,0.54,0.54,0,0,0,.25-0.46v0a0.46,0.46,0,0,0-.14-0.34,1.22,1.22,0,0,0-.39-0.25,5.78,5.78,0,0,0-.57-0.2l-0.67-.21a9,9,0,0,1-.9-0.31,3.23,3.23,0,0,1-.82-0.48,2.34,2.34,0,0,1-.6-0.73,2.2,2.2,0,0,1-.23-1.06v0a2.59,2.59,0,0,1,.25-1.16,2.58,2.58,0,0,1,.67-0.86,2.85,2.85,0,0,1,1-.53,4.12,4.12,0,0,1,1.22-.18,5.51,5.51,0,0,1,1.66.26,6.13,6.13,0,0,1,1.54.73l-0.93,1.68a7.6,7.6,0,0,0-1.25-.58,3.25,3.25,0,0,0-1.07-.22,1.12,1.12,0,0,0-.67.17,0.51,0.51,0,0,0-.22.42v0a0.42,0.42,0,0,0,.14.31,1.59,1.59,0,0,0,.38.26,5.05,5.05,0,0,0,.55.23l0.66,0.22q0.45,0.14.91,0.34a3.78,3.78,0,0,1,.83.49,2.43,2.43,0,0,1,.61.7,2,2,0,0,1,.24,1v0a2.86,2.86,0,0,1-.25,1.24,2.28,2.28,0,0,1-.7.86,3.13,3.13,0,0,1-1,.5A4.75,4.75,0,0,1-4432.08-267.35Z" transform="translate(4494.56 360)"/><path class="a" d="M-4422.27-276.08h2.58v2.56h-2.58v-2.56Zm0,6h2.58v2.56h-2.58v-2.56Z" transform="translate(4494.56 360)"/><rect class="b" x="140.06" y="80.5" width="312" height="169"/><path class="a" d="M-4488.35,158.68a5.79,5.79,0,0,1-2.29-.45,5.61,5.61,0,0,1-1.82-1.22,5.58,5.58,0,0,1-1.2-1.83,5.9,5.9,0,0,1-.43-2.26v0a5.84,5.84,0,0,1,.43-2.25,5.79,5.79,0,0,1,1.2-1.84,5.55,5.55,0,0,1,1.84-1.25,6,6,0,0,1,2.37-.46,7.44,7.44,0,0,1,1.43.13,6,6,0,0,1,1.18.35,5.11,5.11,0,0,1,1,.54,6.58,6.58,0,0,1,.83.7l-1.57,1.81a5.92,5.92,0,0,0-1.34-.93,3.39,3.39,0,0,0-1.53-.34,3.12,3.12,0,0,0-1.3.27,3.09,3.09,0,0,0-1,.75,3.51,3.51,0,0,0-.67,1.11,3.77,3.77,0,0,0-.24,1.35v0a3.84,3.84,0,0,0,.24,1.36,3.55,3.55,0,0,0,.66,1.12,3.1,3.1,0,0,0,1,.76,3.08,3.08,0,0,0,1.32.28,3.43,3.43,0,0,0,1.62-.35,6.3,6.3,0,0,0,1.32-1l1.57,1.58a8.11,8.11,0,0,1-.9.83,5.31,5.31,0,0,1-1,.63,5.26,5.26,0,0,1-1.21.4A7.3,7.3,0,0,1-4488.35,158.68Z" transform="translate(4494.56 360)"/><path class="a" d="M-4477.84,158.68a4.85,4.85,0,0,1-1.84-.34,4.49,4.49,0,0,1-1.46-.94,4.39,4.39,0,0,1-1-1.41,4.3,4.3,0,0,1-.35-1.74v0a4.3,4.3,0,0,1,.35-1.74,4.43,4.43,0,0,1,1-1.42,4.64,4.64,0,0,1,1.47-1,4.8,4.8,0,0,1,1.86-.35,4.85,4.85,0,0,1,1.84.34,4.49,4.49,0,0,1,1.46.94,4.39,4.39,0,0,1,1,1.41,4.3,4.3,0,0,1,.35,1.74v0a4.31,4.31,0,0,1-.35,1.74,4.43,4.43,0,0,1-1,1.42,4.62,4.62,0,0,1-1.47,1A4.8,4.8,0,0,1-4477.84,158.68Zm0-2.1a2.26,2.26,0,0,0,.94-0.18,2.06,2.06,0,0,0,.7-0.5,2.21,2.21,0,0,0,.44-0.74,2.66,2.66,0,0,0,.15-0.9v0a2.55,2.55,0,0,0-.16-0.9,2.29,2.29,0,0,0-.46-0.75,2.27,2.27,0,0,0-.72-0.52,2.15,2.15,0,0,0-.91-0.19,2.26,2.26,0,0,0-.94.18,2.06,2.06,0,0,0-.7.5,2.21,2.21,0,0,0-.44.74,2.65,2.65,0,0,0-.15.9v0a2.54,2.54,0,0,0,.16.9,2.28,2.28,0,0,0,.46.75,2.29,2.29,0,0,0,.71.52A2.14,2.14,0,0,0-4477.81,156.59Z" transform="translate(4494.56 360)"/><path class="a" d="M-4471.42,149.92h2.43v1.23a5.13,5.13,0,0,1,.46-0.52,3.15,3.15,0,0,1,.55-0.44,2.7,2.7,0,0,1,.68-0.31,2.92,2.92,0,0,1,.84-0.11,2.89,2.89,0,0,1,1.46.35,2.39,2.39,0,0,1,1,1,3.9,3.9,0,0,1,1.25-1,3.43,3.43,0,0,1,1.57-.35,2.81,2.81,0,0,1,2.13.8,3.27,3.27,0,0,1,.77,2.35v5.58h-2.43v-4.77a2,2,0,0,0-.37-1.3,1.3,1.3,0,0,0-1.06-.44,1.37,1.37,0,0,0-1.08.44,1.9,1.9,0,0,0-.39,1.3v4.77h-2.43v-4.77a2,2,0,0,0-.37-1.3,1.3,1.3,0,0,0-1.06-.44,1.37,1.37,0,0,0-1.08.44,1.89,1.89,0,0,0-.39,1.3v4.77h-2.43v-8.58Z" transform="translate(4494.56 360)"/><path class="a" d="M-4456.22,149.92h2.43v1.23a5.13,5.13,0,0,1,.46-0.52,3.15,3.15,0,0,1,.55-0.44,2.7,2.7,0,0,1,.68-0.31,2.92,2.92,0,0,1,.84-0.11,2.89,2.89,0,0,1,1.46.35,2.39,2.39,0,0,1,1,1,3.9,3.9,0,0,1,1.25-1,3.43,3.43,0,0,1,1.57-.35,2.81,2.81,0,0,1,2.13.8,3.27,3.27,0,0,1,.77,2.35v5.58h-2.43v-4.77a2,2,0,0,0-.37-1.3A1.3,1.3,0,0,0-4447,152a1.37,1.37,0,0,0-1.08.44,1.9,1.9,0,0,0-.39,1.3v4.77h-2.43v-4.77a2,2,0,0,0-.37-1.3,1.3,1.3,0,0,0-1.06-.44,1.37,1.37,0,0,0-1.08.44,1.89,1.89,0,0,0-.39,1.3v4.77h-2.43v-8.58Z" transform="translate(4494.56 360)"/><path class="a" d="M-4437,158.68a4.88,4.88,0,0,1-1.78-.32,4.12,4.12,0,0,1-1.42-.91,4.21,4.21,0,0,1-.94-1.4,4.64,4.64,0,0,1-.34-1.8v0a4.8,4.8,0,0,1,.31-1.73,4.4,4.4,0,0,1,.87-1.42,4.1,4.1,0,0,1,1.34-1,4.12,4.12,0,0,1,1.72-.35,4.18,4.18,0,0,1,1.86.38,3.77,3.77,0,0,1,1.3,1,4.29,4.29,0,0,1,.77,1.49,6.16,6.16,0,0,1,.25,1.75q0,0.14,0,.3c0,0.11,0,.22,0,0.34h-6a2,2,0,0,0,.73,1.26,2.18,2.18,0,0,0,1.37.42,2.71,2.71,0,0,0,1.09-.21,3.69,3.69,0,0,0,1-.67l1.39,1.23a4.32,4.32,0,0,1-1.47,1.18A4.57,4.57,0,0,1-4437,158.68Zm1.57-5.15a2.37,2.37,0,0,0-.58-1.32,1.59,1.59,0,0,0-1.23-.5,1.63,1.63,0,0,0-1.24.5,2.49,2.49,0,0,0-.62,1.33h3.66Z" transform="translate(4494.56 360)"/><path class="a" d="M-4431.22,149.92h2.43v1.23a5.13,5.13,0,0,1,.46-0.52,3.15,3.15,0,0,1,.55-0.44,2.74,2.74,0,0,1,.67-0.31,2.84,2.84,0,0,1,.83-0.11,2.74,2.74,0,0,1,2.15.85,3.38,3.38,0,0,1,.76,2.34v5.55h-2.43v-4.77a1.92,1.92,0,0,0-.38-1.3,1.37,1.37,0,0,0-1.09-.44,1.44,1.44,0,0,0-1.11.44,1.85,1.85,0,0,0-.41,1.3v4.77h-2.43v-8.58Z" transform="translate(4494.56 360)"/><path class="a" d="M-4418.35,158.63a4,4,0,0,1-1-.12,1.81,1.81,0,0,1-.78-0.42,2,2,0,0,1-.51-0.79,3.55,3.55,0,0,1-.18-1.24V152h-1v-2.08h1v-2.19h2.43v2.19h2V152h-2v3.68a0.72,0.72,0,0,0,.78.83,2.38,2.38,0,0,0,1.2-.32v2a3.8,3.8,0,0,1-.85.36A3.85,3.85,0,0,1-4418.35,158.63Z" transform="translate(4494.56 360)"/><path class="a" d="M-4411.6,158.65a6,6,0,0,1-1.86-.31,6,6,0,0,1-1.82-1l1-1.6a5.77,5.77,0,0,0,1.4.77,3.78,3.78,0,0,0,1.3.26,1.35,1.35,0,0,0,.78-0.18,0.54,0.54,0,0,0,.25-0.46v0a0.46,0.46,0,0,0-.14-0.34,1.22,1.22,0,0,0-.39-0.25,5.78,5.78,0,0,0-.57-0.2l-0.67-.21a9,9,0,0,1-.9-0.31,3.23,3.23,0,0,1-.82-0.48,2.34,2.34,0,0,1-.6-0.73,2.2,2.2,0,0,1-.23-1.06v0a2.59,2.59,0,0,1,.25-1.16,2.58,2.58,0,0,1,.67-0.86,2.85,2.85,0,0,1,1-.53,4.12,4.12,0,0,1,1.22-.18,5.51,5.51,0,0,1,1.66.26,6.13,6.13,0,0,1,1.54.73l-0.93,1.68a7.6,7.6,0,0,0-1.25-.58,3.25,3.25,0,0,0-1.07-.22,1.12,1.12,0,0,0-.67.17,0.51,0.51,0,0,0-.22.42v0a0.42,0.42,0,0,0,.14.31,1.59,1.59,0,0,0,.38.26,5.05,5.05,0,0,0,.55.23l0.66,0.22q0.45,0.14.91,0.34a3.78,3.78,0,0,1,.83.49,2.43,2.43,0,0,1,.61.7,2,2,0,0,1,.24,1v0a2.86,2.86,0,0,1-.25,1.24,2.28,2.28,0,0,1-.7.86,3.13,3.13,0,0,1-1,.5A4.75,4.75,0,0,1-4411.6,158.65Z" transform="translate(4494.56 360)"/><path class="a" d="M-4401.79,149.92h2.58v2.56h-2.58v-2.56Zm0,6h2.58v2.56h-2.58v-2.56Z" transform="translate(4494.56 360)"/><rect class="b" x="140.06" y="506.5" width="312" height="169"/><rect class="a" x="261.56" y="729" width="190" height="47"/><path class="c" d="M-4205.61,399.21a10.2,10.2,0,0,1-3.45-.6,9.14,9.14,0,0,1-3.08-1.86l2-2.4a10,10,0,0,0,2.17,1.36,5.79,5.79,0,0,0,2.43.51,3,3,0,0,0,1.64-.39,1.21,1.21,0,0,0,.58-1.07v0a1.33,1.33,0,0,0-.12-0.58,1.23,1.23,0,0,0-.46-0.47,4.86,4.86,0,0,0-.95-0.44q-0.61-.22-1.58-0.46a19.07,19.07,0,0,1-2.12-.64,6,6,0,0,1-1.61-.87,3.51,3.51,0,0,1-1-1.29,4.47,4.47,0,0,1-.36-1.91v0a4.47,4.47,0,0,1,.39-1.9,4.33,4.33,0,0,1,1.1-1.46,5,5,0,0,1,1.7-.95,6.82,6.82,0,0,1,2.17-.33,9.22,9.22,0,0,1,3.11.51,9,9,0,0,1,2.61,1.45l-1.76,2.55a11.2,11.2,0,0,0-2-1.11,5.17,5.17,0,0,0-2-.41,2.4,2.4,0,0,0-1.48.38,1.17,1.17,0,0,0-.5,1v0a1.39,1.39,0,0,0,.14.65,1.3,1.3,0,0,0,.52.5,4.91,4.91,0,0,0,1,.42l1.64,0.46a15.77,15.77,0,0,1,2.08.69,5.83,5.83,0,0,1,1.54.92,3.53,3.53,0,0,1,.95,1.27,4.29,4.29,0,0,1,.32,1.74v0a4.76,4.76,0,0,1-.42,2,4.18,4.18,0,0,1-1.16,1.5,5.21,5.21,0,0,1-1.77.92A7.71,7.71,0,0,1-4205.61,399.21Z" transform="translate(4494.56 360)"/><path class="c" d="M-4191.79,399.25a6.72,6.72,0,0,1-2.45-.44,5.68,5.68,0,0,1-2-1.25,5.81,5.81,0,0,1-1.29-1.93,6.39,6.39,0,0,1-.46-2.48v0a6.59,6.59,0,0,1,.43-2.38,6,6,0,0,1,1.2-2,5.64,5.64,0,0,1,1.84-1.32,5.66,5.66,0,0,1,2.36-.48,5.74,5.74,0,0,1,2.55.53,5.19,5.19,0,0,1,1.79,1.42,5.91,5.91,0,0,1,1.06,2,8.46,8.46,0,0,1,.34,2.41c0,0.13,0,.27,0,0.42s0,0.3,0,.46h-8.21a2.82,2.82,0,0,0,1,1.73,3,3,0,0,0,1.88.58,3.72,3.72,0,0,0,1.5-.29,5.08,5.08,0,0,0,1.36-.92l1.91,1.69a5.93,5.93,0,0,1-2,1.62A6.27,6.27,0,0,1-4191.79,399.25Zm2.16-7.08a3.26,3.26,0,0,0-.79-1.81,2.19,2.19,0,0,0-1.69-.69,2.25,2.25,0,0,0-1.7.68,3.42,3.42,0,0,0-.85,1.83h5Z" transform="translate(4494.56 360)"/><path class="c" d="M-4183.9,387.2h3.34v1.69a7.11,7.11,0,0,1,.63-0.72,4.36,4.36,0,0,1,.76-0.61,3.77,3.77,0,0,1,.92-0.42,3.9,3.9,0,0,1,1.14-.16,3.77,3.77,0,0,1,3,1.17,4.64,4.64,0,0,1,1,3.21V399h-3.34v-6.56a2.65,2.65,0,0,0-.53-1.79,1.88,1.88,0,0,0-1.5-.6,2,2,0,0,0-1.53.6,2.54,2.54,0,0,0-.56,1.79V399h-3.34V387.2Z" transform="translate(4494.56 360)"/><path class="c" d="M-4165.35,399.21a5.24,5.24,0,0,1-2-.4,5,5,0,0,1-1.72-1.18,5.86,5.86,0,0,1-1.2-1.91,7,7,0,0,1-.45-2.61v0a7,7,0,0,1,.45-2.61,6,6,0,0,1,1.19-1.91,4.85,4.85,0,0,1,1.71-1.18,5.3,5.3,0,0,1,2-.4,4.2,4.2,0,0,1,2.21.53,5.91,5.91,0,0,1,1.46,1.23v-5.81h3.34V399h-3.34v-1.69a5.29,5.29,0,0,1-1.49,1.38A4.09,4.09,0,0,1-4165.35,399.21Zm0.86-2.84a2.69,2.69,0,0,0,1.11-.23,2.66,2.66,0,0,0,.9-0.66,3.29,3.29,0,0,0,.62-1,3.7,3.7,0,0,0,.23-1.33v0a3.7,3.7,0,0,0-.23-1.33,3.29,3.29,0,0,0-.62-1,2.66,2.66,0,0,0-.9-0.66,2.7,2.7,0,0,0-1.11-.23,2.7,2.7,0,0,0-1.11.23,2.78,2.78,0,0,0-.91.66,3.2,3.2,0,0,0-.63,1,3.68,3.68,0,0,0-.23,1.34v0a3.7,3.7,0,0,0,.23,1.33,3.18,3.18,0,0,0,.63,1,2.77,2.77,0,0,0,.91.66A2.69,2.69,0,0,0-4164.49,396.37Z" transform="translate(4494.56 360)"/><path class="c" d="M-4148.39,383.59h11.59v3H-4145v3.12h7.26v3H-4145V396h8.36v3h-11.7v-15.4Z" transform="translate(4494.56 360)"/><path class="c" d="M-4134,387.2h3.34v1.69a7.11,7.11,0,0,1,.63-0.72,4.36,4.36,0,0,1,.76-0.61,3.77,3.77,0,0,1,.92-0.42,3.9,3.9,0,0,1,1.14-.16,3.77,3.77,0,0,1,3,1.17,4.64,4.64,0,0,1,1,3.21V399h-3.34v-6.56a2.65,2.65,0,0,0-.53-1.79,1.88,1.88,0,0,0-1.5-.6,2,2,0,0,0-1.53.6,2.54,2.54,0,0,0-.56,1.79V399H-4134V387.2Z" transform="translate(4494.56 360)"/><path class="c" d="M-4111.78,397.29a5.29,5.29,0,0,1-1.49,1.38,4.09,4.09,0,0,1-2.19.54,5.24,5.24,0,0,1-2-.4,5,5,0,0,1-1.72-1.18,5.86,5.86,0,0,1-1.2-1.91,7,7,0,0,1-.45-2.61v0a7,7,0,0,1,.45-2.61,6,6,0,0,1,1.19-1.91,4.85,4.85,0,0,1,1.71-1.18,5.3,5.3,0,0,1,2-.4,4.2,4.2,0,0,1,2.21.53,5.91,5.91,0,0,1,1.46,1.23V387.2h3.34v15.31h-3.34v-5.21Zm-2.82-.92a2.69,2.69,0,0,0,1.11-.23,2.66,2.66,0,0,0,.9-0.66,3.29,3.29,0,0,0,.62-1,3.7,3.7,0,0,0,.23-1.33v0a3.7,3.7,0,0,0-.23-1.33,3.29,3.29,0,0,0-.62-1,2.66,2.66,0,0,0-.9-0.66,2.7,2.7,0,0,0-1.11-.23,2.7,2.7,0,0,0-1.11.23,2.78,2.78,0,0,0-.91.66,3.2,3.2,0,0,0-.63,1,3.68,3.68,0,0,0-.23,1.34v0a3.7,3.7,0,0,0,.23,1.33,3.18,3.18,0,0,0,.63,1,2.77,2.77,0,0,0,.91.66A2.69,2.69,0,0,0-4114.6,396.37Z" transform="translate(4494.56 360)"/><path class="c" d="M-4101.53,399.21a3.77,3.77,0,0,1-3-1.17,4.64,4.64,0,0,1-1-3.21V387.2h3.34v6.56a2.65,2.65,0,0,0,.53,1.79,1.88,1.88,0,0,0,1.5.6,2,2,0,0,0,1.53-.6,2.54,2.54,0,0,0,.56-1.79V387.2h3.34V399h-3.34V397.3a7.18,7.18,0,0,1-.63.72,4.34,4.34,0,0,1-.76.61,3.76,3.76,0,0,1-.92.42A3.91,3.91,0,0,1-4101.53,399.21Z" transform="translate(4494.56 360)"/><path class="c" d="M-4091.67,382.93h3.52v3h-3.52v-3Zm0.09,4.27h3.34V399h-3.34V387.2Z" transform="translate(4494.56 360)"/><path class="c" d="M-4085.09,387.2h3.34v2.38a4.9,4.9,0,0,1,1.39-1.94A3.37,3.37,0,0,1-4078,387v3.5h-0.18a3.44,3.44,0,0,0-2.63,1,4.45,4.45,0,0,0-1,3.15V399h-3.34V387.2Z" transform="translate(4494.56 360)"/><path class="c" d="M-4073.08,402.57a5.47,5.47,0,0,1-1.63-.22,6.45,6.45,0,0,1-1.34-.59l1.12-2.42a3.74,3.74,0,0,0,.71.33,2.21,2.21,0,0,0,.72.13,1.26,1.26,0,0,0,.69-0.17,1.51,1.51,0,0,0,.47-0.6L-4077,387.2h3.54l2.68,8,2.57-8h3.48l-4.53,12.08a9.13,9.13,0,0,1-.7,1.53,4.25,4.25,0,0,1-.82,1,2.77,2.77,0,0,1-1,.57A4.5,4.5,0,0,1-4073.08,402.57Z" transform="translate(4494.56 360)"/></svg>