<svg xmlns="http://www.w3.org/2000/svg" viewBox="0 0 1055.38 187.07"><defs><style>.a{fill:#002f4d;}.b{fill:#686868;}</style></defs><title>logo_title</title><path class="a" d="M178.22,384.45v20.71h-66V307.88h24.73v76.57h41.27Z" transform="translate(-112.21 -306.77)"/><path class="a" d="M242.56,327.34v19.31H289v19.45H242.56V385.7H295.5v19.45H217.82V307.88H294v19.46H242.56Z" transform="translate(-112.21 -306.77)"/><path class="a" d="M475,317.61l-9.31,19.32c-10.28-6-23.2-10.14-31.13-10.14-6.39,0-10.7,2.36-10.7,7.09,0,16.82,51.42,7.23,51.42,42.38,0,19.45-17.23,29.74-38.91,29.74-16.26,0-32.93-6.12-44.46-15.56l9.59-19c10,8.75,25,14.59,35.16,14.59,7.78,0,12.64-2.92,12.64-8.47,0-17.23-51.41-6.95-51.41-41.41,0-17.92,15.42-29.32,38.77-29.32C450.72,306.77,465,311.08,475,317.61Z" transform="translate(-112.21 -306.77)"/><path class="a" d="M682.22,377.78H662.76v27.38H638V307.88h43.49c25.71,0,40.44,12.23,40.44,33.91,0,14.87-6.25,25.57-17.64,31.26l20.43,32.1H696.67Zm-0.7-19.45c10.7,0,17-5.42,17-15.7s-6.25-15.28-17-15.28H662.76v31h18.76Z" transform="translate(-112.21 -306.77)"/><path class="a" d="M810.61,377.78H791.16v27.38H766.42V307.88h43.5c25.71,0,40.44,12.23,40.44,33.91,0,14.87-6.25,25.57-17.65,31.26l20.43,32.1H825.06Zm-0.69-19.45c10.7,0,17-5.42,17-15.7s-6.25-15.28-17-15.28H791.16v31h18.76Z" transform="translate(-112.21 -306.77)"/><path class="a" d="M916.91,387.23l-7.09,17.92H884.4l42-97.27h25.42l41,97.27h-26.4l-6.95-17.92H916.91Zm21.4-54.75-14.17,36h28.07Z" transform="translate(-112.21 -306.77)"/><path class="a" d="M529.21,387.23l-7.09,17.92H496.69l42-97.27h25.43l41,97.27h-26.4l-6.94-17.92H529.21Zm21.4-54.75-14.17,36h28.07Z" transform="translate(-112.21 -306.77)"/><path class="a" d="M1029.61,405.15V307.88h24.74v97.27h-24.74Z" transform="translate(-112.21 -306.77)"/><path class="a" d="M1167.59,384.45v20.71h-66V307.88h24.73v76.57h41.27Z" transform="translate(-112.21 -306.77)"/><path class="b" d="M126.15,455.48c6.41,0,10.27,3,10.27,8a6.92,6.92,0,0,1-5.86,7.18c4.59,0.68,7.27,3.68,7.27,8,0,5.41-4.27,8.64-11.45,8.64H112.74V455.48h13.41Zm-9.77,13.73H126c4.27,0,6.77-1.86,6.77-5.18s-2.5-5-6.77-5h-9.59V469.2Zm0,14.64H126c5.18,0,8.18-2,8.18-5.68,0-3.46-3-5.5-8.18-5.5h-9.59v11.18Z" transform="translate(-112.21 -306.77)"/><path class="b" d="M193.79,471.38c0,9-7.36,16.09-16.64,16.09s-16.68-7.14-16.68-16.09,7.36-16,16.68-16S193.79,462.43,193.79,471.38Zm-29.63,0a13,13,0,1,0,13-12.54A12.83,12.83,0,0,0,164.15,471.38Z" transform="translate(-112.21 -306.77)"/><path class="b" d="M244.61,474.2c0,8.27-5,13.27-13.32,13.27s-13.41-5-13.41-13.27V455.48h3.64V474.2c0,6.18,3.73,9.77,9.77,9.77s9.68-3.59,9.68-9.77V455.48h3.64V474.2Z" transform="translate(-112.21 -306.77)"/><path class="b" d="M281.38,459v28.32h-3.64V459H267.38v-3.5h24.41V459H281.38Z" transform="translate(-112.21 -306.77)"/><path class="b" d="M315.24,487.29V455.48h3.64v31.82h-3.64Z" transform="translate(-112.21 -306.77)"/><path class="b" d="M378.88,490.34a12.19,12.19,0,0,1-8.13,3.5c-3.68,0-7-2.27-10-6.36h-0.37c-9.32,0-16.68-7.14-16.68-16.09s7.36-16,16.68-16,16.64,7,16.64,16a16,16,0,0,1-12.32,15.55c2.18,2.32,4.32,3.55,6.45,3.55,1.86,0,4-1,6.14-2.86ZM360.38,484a12.57,12.57,0,1,0-13-12.59A12.75,12.75,0,0,0,360.38,484Z" transform="translate(-112.21 -306.77)"/><path class="b" d="M428.6,474.2c0,8.27-5,13.27-13.32,13.27s-13.41-5-13.41-13.27V455.48h3.63V474.2c0,6.18,3.73,9.77,9.77,9.77s9.68-3.59,9.68-9.77V455.48h3.64V474.2Z" transform="translate(-112.21 -306.77)"/><path class="b" d="M459.33,459v10.45h16v3.5h-16v10.91h18.55v3.46H455.7V455.48h21.59V459h-18Z" transform="translate(-112.21 -306.77)"/><path class="b" d="M556.92,487.29v-14H537.74v14H534.1V455.48h3.64v14.36h19.18V455.48h3.64v31.82h-3.64Z" transform="translate(-112.21 -306.77)"/><path class="b" d="M618.69,471.38c0,9-7.36,16.09-16.64,16.09s-16.68-7.14-16.68-16.09,7.36-16,16.68-16S618.69,462.43,618.69,471.38Zm-29.64,0a13,13,0,1,0,13-12.54A12.83,12.83,0,0,0,589.06,471.38Z" transform="translate(-112.21 -306.77)"/><path class="b" d="M669.51,474.2c0,8.27-5,13.27-13.32,13.27s-13.41-5-13.41-13.27V455.48h3.64V474.2c0,6.18,3.73,9.77,9.77,9.77s9.68-3.59,9.68-9.77V455.48h3.64V474.2Z" transform="translate(-112.21 -306.77)"/><path class="b" d="M716.15,458.29l-1.54,3.41a16.45,16.45,0,0,0-8.77-2.68c-4.09,0-6.77,1.55-6.77,4.23,0,8.18,17.91,3.91,17.86,15.45,0,5.32-4.68,8.72-11.5,8.72a18.15,18.15,0,0,1-12.18-4.86l1.63-3.27a15.82,15.82,0,0,0,10.59,4.5c4.59,0,7.45-1.86,7.45-4.91,0-8.37-17.86-3.91-17.86-15.32,0-5,4.41-8.23,11-8.23A18.81,18.81,0,0,1,716.15,458.29Z" transform="translate(-112.21 -306.77)"/><path class="b" d="M746.2,459v10.45h16v3.5h-16v10.91h18.54v3.46H742.56V455.48h21.59V459h-18Z" transform="translate(-112.21 -306.77)"/><path class="b" d="M809.88,458.29l-1.54,3.41a16.46,16.46,0,0,0-8.77-2.68c-4.09,0-6.77,1.55-6.77,4.23,0,8.18,17.91,3.91,17.86,15.45,0,5.32-4.68,8.72-11.5,8.72A18.15,18.15,0,0,1,787,482.57l1.63-3.27a15.84,15.84,0,0,0,10.59,4.5c4.59,0,7.45-1.86,7.45-4.91,0-8.37-17.86-3.91-17.86-15.32,0-5,4.41-8.23,11-8.23A18.82,18.82,0,0,1,809.88,458.29Z" transform="translate(-112.21 -306.77)"/><path class="b" d="M876.6,459v28.32H873V459H862.6v-3.5H887V459H876.6Z" transform="translate(-112.21 -306.77)"/><path class="b" d="M938.74,471.38c0,9-7.36,16.09-16.63,16.09s-16.68-7.14-16.68-16.09,7.36-16,16.68-16S938.74,462.43,938.74,471.38Zm-29.63,0a13,13,0,1,0,13-12.54A12.83,12.83,0,0,0,909.1,471.38Z" transform="translate(-112.21 -306.77)"/><path class="b" d="M1008.42,477.16c-0.68,0-1.41.09-2.14,0.09h-8.45v10h-3.64V455.48h12.09c8,0,12.54,3.91,12.54,10.68,0,5.27-2.55,8.82-7.14,10.32l7.46,10.82H1015Zm-2.14-3.41c5.77,0,9-2.55,9-7.5s-3.27-7.27-9-7.27h-8.45v14.77h8.45Z" transform="translate(-112.21 -306.77)"/><path class="b" d="M1048.88,459v10.45h16v3.5h-16v10.91h18.55v3.46h-22.18V455.48h21.59V459h-18Z" transform="translate(-112.21 -306.77)"/><path class="b" d="M1115.74,487.29l-19.09-25.54v25.54H1093V455.48h3.77l19.09,25.59V455.48h3.59v31.82h-3.72Z" transform="translate(-112.21 -306.77)"/><path class="b" d="M1157,459v28.32h-3.64V459H1143v-3.5h24.41V459H1157Z" transform="translate(-112.21 -306.77)"/></svg>