<svg xmlns="http://www.w3.org/2000/svg" viewBox="0 0 176.94 16.58"><defs><style>.a{fill:#002e4d;}</style></defs><title>logo</title><polygon class="a" points="11.07 12.98 11.07 16.44 0 16.44 0 0.19 4.15 0.19 4.15 12.98 11.07 12.98"/><polygon class="a" points="21.85 3.44 21.85 6.67 29.64 6.67 29.64 9.92 21.85 9.92 21.85 13.19 30.73 13.19 30.73 16.44 17.71 16.44 17.71 0.19 30.47 0.19 30.47 3.44 21.85 3.44"/><path class="a" d="M118.83,119.49l-1.56,3.23A12.18,12.18,0,0,0,112,121c-1.07,0-1.79.39-1.79,1.18,0,2.81,8.62,1.21,8.62,7.08,0,3.25-2.89,5-6.52,5a12.19,12.19,0,0,1-7.46-2.6l1.61-3.18a10.18,10.18,0,0,0,5.89,2.44c1.31,0,2.12-.49,2.12-1.42,0-2.88-8.62-1.16-8.62-6.92,0-3,2.59-4.9,6.5-4.9a12.27,12.27,0,0,1,6.43,1.81" transform="translate(-58 -117.68)"/><path class="a" d="M153.45,126.29c1.79,0,2.84-.9,2.84-2.62s-1-2.55-2.84-2.55H150.3v5.18h3.14Zm0.12,3.25H150.3v4.58h-4.15V117.87h7.29c4.31,0,6.78,2,6.78,5.67a5.41,5.41,0,0,1-3,5.22l3.42,5.36H156Z" transform="translate(-58 -117.68)"/><path class="a" d="M175,126.29c1.79,0,2.84-.9,2.84-2.62s-1-2.55-2.84-2.55h-3.15v5.18H175Zm0.12,3.25h-3.26v4.58h-4.15V117.87H175c4.31,0,6.78,2,6.78,5.67a5.41,5.41,0,0,1-3,5.22l3.43,5.36h-4.71Z" transform="translate(-58 -117.68)"/><path class="a" d="M196.5,122l-2.38,6h4.71Zm-3.59,9.15-1.19,3h-4.26l7-16.26h4.26l6.87,16.26h-4.43l-1.16-3h-7.13Z" transform="translate(-58 -117.68)"/><path class="a" d="M131.5,122l-2.38,6h4.71Zm-3.59,9.15-1.19,3h-4.26l7-16.26h4.26l6.87,16.26h-4.43l-1.16-3h-7.13Z" transform="translate(-58 -117.68)"/><rect class="a" x="153.81" y="0.19" width="4.15" height="16.26"/><polygon class="a" points="176.94 12.98 176.94 16.44 165.88 16.44 165.88 0.19 170.03 0.19 170.03 12.98 176.94 12.98"/></svg>