<svg xmlns="http://www.w3.org/2000/svg" viewBox="0 0 446.76 79.19"><defs><style>.a{fill:#002f4d;}.b{fill:#7f7f7f;}</style></defs><title>logo_title</title><path class="a" d="M444.46,393.59v8.77H416.52V361.18H427v32.41h17.47Z" transform="translate(-416.52 -360.71)"/><path class="a" d="M471.7,369.42v8.18h19.65v8.24H471.7v8.29h22.41v8.24H461.23V361.18h32.23v8.24H471.7Z" transform="translate(-416.52 -360.71)"/><path class="a" d="M570.11,365.3l-3.94,8.18c-4.35-2.53-9.82-4.29-13.18-4.29-2.71,0-4.53,1-4.53,3,0,7.12,21.77,3.06,21.77,17.94,0,8.24-7.29,12.59-16.47,12.59a30.71,30.71,0,0,1-18.82-6.59l4.06-8.06c4.24,3.71,10.59,6.17,14.88,6.17,3.29,0,5.35-1.23,5.35-3.59,0-7.29-21.76-2.94-21.76-17.53,0-7.59,6.53-12.41,16.41-12.41A30.91,30.91,0,0,1,570.11,365.3Z" transform="translate(-416.52 -360.71)"/><path class="a" d="M657.81,390.77h-8.24v11.59H639.11V361.18h18.41c10.88,0,17.12,5.18,17.12,14.36,0,6.29-2.65,10.82-7.47,13.23l8.65,13.59H663.93Zm-0.29-8.23c4.53,0,7.18-2.29,7.18-6.65s-2.65-6.47-7.18-6.47h-7.94v13.12h7.94Z" transform="translate(-416.52 -360.71)"/><path class="a" d="M712.17,390.77h-8.24v11.59H693.46V361.18h18.41c10.88,0,17.12,5.18,17.12,14.36,0,6.29-2.65,10.82-7.47,13.23l8.65,13.59H718.28Zm-0.29-8.23c4.53,0,7.18-2.29,7.18-6.65s-2.65-6.47-7.18-6.47h-7.94v13.12h7.94Z" transform="translate(-416.52 -360.71)"/><path class="a" d="M757.17,394.77l-3,7.59H743.4l17.76-41.18h10.76l17.35,41.18H778.11l-2.94-7.59h-18Zm9.06-23.18-6,15.23h11.88Z" transform="translate(-416.52 -360.71)"/><path class="a" d="M593,394.77l-3,7.59H579.28L597,361.18h10.76l17.35,41.18H614L611,394.77H593Zm9.06-23.18-6,15.23H608Z" transform="translate(-416.52 -360.71)"/><path class="a" d="M804.87,402.36V361.18h10.47v41.18H804.87Z" transform="translate(-416.52 -360.71)"/><path class="a" d="M863.28,393.59v8.77H835.34V361.18h10.47v32.41h17.47Z" transform="translate(-416.52 -360.71)"/><path class="b" d="M422.42,423.66c2.71,0,4.35,1.25,4.35,3.37a2.93,2.93,0,0,1-2.48,3,3.29,3.29,0,0,1,3.08,3.41c0,2.29-1.81,3.66-4.85,3.66h-5.77V423.66h5.68Zm-4.14,5.81h4.06c1.81,0,2.87-.79,2.87-2.19s-1.06-2.14-2.87-2.14h-4.06v4.33Zm0,6.2h4.06c2.19,0,3.46-.87,3.46-2.4s-1.27-2.33-3.46-2.33h-4.06v4.73Z" transform="translate(-416.52 -360.71)"/><path class="b" d="M451.05,430.39a7.06,7.06,0,1,1-7-6.77A6.89,6.89,0,0,1,451.05,430.39Zm-12.54,0a5.49,5.49,0,1,0,5.5-5.31A5.43,5.43,0,0,0,438.51,430.39Z" transform="translate(-416.52 -360.71)"/><path class="b" d="M472.57,431.59c0,3.5-2.12,5.62-5.64,5.62s-5.68-2.12-5.68-5.62v-7.93h1.54v7.93a4.12,4.12,0,1,0,8.24,0v-7.93h1.54v7.93Z" transform="translate(-416.52 -360.71)"/><path class="b" d="M488.13,425.14v12h-1.54v-12h-4.39v-1.48h10.33v1.48h-4.41Z" transform="translate(-416.52 -360.71)"/><path class="b" d="M502.47,437.13V423.66H504v13.47h-1.54Z" transform="translate(-416.52 -360.71)"/><path class="b" d="M529.41,438.42A5.16,5.16,0,0,1,526,439.9c-1.56,0-3-1-4.23-2.69h-0.15a6.8,6.8,0,1,1,7-6.81A6.79,6.79,0,0,1,523.4,437a3.92,3.92,0,0,0,2.73,1.5,4.3,4.3,0,0,0,2.6-1.21Zm-7.83-2.69a5.32,5.32,0,1,0-5.5-5.33A5.4,5.4,0,0,0,521.57,435.72Z" transform="translate(-416.52 -360.71)"/><path class="b" d="M550.46,431.59c0,3.5-2.12,5.62-5.64,5.62s-5.68-2.12-5.68-5.62v-7.93h1.54v7.93a4.12,4.12,0,1,0,8.23,0v-7.93h1.54v7.93Z" transform="translate(-416.52 -360.71)"/><path class="b" d="M563.46,425.14v4.42h6.79V431h-6.79v4.62h7.85v1.46h-9.39V423.66h9.14v1.48h-7.6Z" transform="translate(-416.52 -360.71)"/><path class="b" d="M604.78,437.13V431.2h-8.12v5.93h-1.54V423.66h1.54v6.08h8.12v-6.08h1.54v13.47h-1.54Z" transform="translate(-416.52 -360.71)"/><path class="b" d="M630.92,430.39a7.06,7.06,0,1,1-7-6.77A6.89,6.89,0,0,1,630.92,430.39Zm-12.54,0a5.49,5.49,0,1,0,5.5-5.31A5.43,5.43,0,0,0,618.38,430.39Z" transform="translate(-416.52 -360.71)"/><path class="b" d="M652.44,431.59c0,3.5-2.12,5.62-5.64,5.62s-5.68-2.12-5.68-5.62v-7.93h1.54v7.93a4.12,4.12,0,1,0,8.24,0v-7.93h1.54v7.93Z" transform="translate(-416.52 -360.71)"/><path class="b" d="M672.18,424.85l-0.65,1.44a7,7,0,0,0-3.71-1.14c-1.73,0-2.87.66-2.87,1.79,0,3.46,7.58,1.66,7.56,6.54,0,2.25-2,3.69-4.87,3.69a7.69,7.69,0,0,1-5.16-2.06l0.69-1.39a6.7,6.7,0,0,0,4.48,1.9c1.94,0,3.16-.79,3.16-2.08,0-3.54-7.56-1.66-7.56-6.48,0-2.12,1.87-3.48,4.66-3.48A8,8,0,0,1,672.18,424.85Z" transform="translate(-416.52 -360.71)"/><path class="b" d="M684.9,425.14v4.42h6.79V431H684.9v4.62h7.85v1.46h-9.39V423.66h9.14v1.48h-7.6Z" transform="translate(-416.52 -360.71)"/><path class="b" d="M711.86,424.85l-0.65,1.44a7,7,0,0,0-3.71-1.14c-1.73,0-2.87.66-2.87,1.79,0,3.46,7.58,1.66,7.56,6.54,0,2.25-2,3.69-4.87,3.69a7.69,7.69,0,0,1-5.16-2.06l0.69-1.39a6.7,6.7,0,0,0,4.48,1.9c1.94,0,3.16-.79,3.16-2.08,0-3.54-7.56-1.66-7.56-6.48,0-2.12,1.87-3.48,4.66-3.48A8,8,0,0,1,711.86,424.85Z" transform="translate(-416.52 -360.71)"/><path class="b" d="M740.1,425.14v12h-1.54v-12h-4.39v-1.48h10.33v1.48H740.1Z" transform="translate(-416.52 -360.71)"/><path class="b" d="M766.4,430.39a7.06,7.06,0,1,1-7-6.77A6.89,6.89,0,0,1,766.4,430.39Zm-12.54,0a5.49,5.49,0,1,0,5.5-5.31A5.43,5.43,0,0,0,753.86,430.39Z" transform="translate(-416.52 -360.71)"/><path class="b" d="M795.9,432.84c-0.29,0-.6,0-0.9,0h-3.58v4.25h-1.54V423.66H795c3.37,0,5.31,1.65,5.31,4.52a4.22,4.22,0,0,1-3,4.37l3.16,4.58h-1.75Zm-0.9-1.44c2.44,0,3.83-1.08,3.83-3.17s-1.38-3.08-3.83-3.08h-3.58v6.25H795Z" transform="translate(-416.52 -360.71)"/><path class="b" d="M813,425.14v4.42h6.79V431H813v4.62h7.85v1.46h-9.39V423.66h9.14v1.48H813Z" transform="translate(-416.52 -360.71)"/><path class="b" d="M841.33,437.13l-8.08-10.81v10.81h-1.54V423.66h1.6l8.08,10.83V423.66h1.52v13.47h-1.58Z" transform="translate(-416.52 -360.71)"/><path class="b" d="M858.8,425.14v12h-1.54v-12h-4.39v-1.48h10.33v1.48H858.8Z" transform="translate(-416.52 -360.71)"/></svg>